<?xml version="1.0" standalone="no"?>
<!DOCTYPE svg PUBLIC "-//W3C//DTD SVG 20010904//EN"
 "http://www.w3.org/TR/2001/REC-SVG-20010904/DTD/svg10.dtd">
<svg version="1.0" xmlns="http://www.w3.org/2000/svg"
 width="960.000000pt" height="960.000000pt" viewBox="0 0 960.000000 960.000000"
 preserveAspectRatio="xMidYMid meet">
<metadata>
Created by potrace 1.16, written by Peter Selinger 2001-2019
</metadata>
<g transform="translate(0.000000,960.000000) scale(0.100000,-0.100000)"
fill="#000000" stroke="none">
<path d="M4513 9119 c-171 -17 -423 -96 -663 -210 -69 -32 -133 -59 -141 -59
-8 0 -43 -11 -77 -24 -125 -49 -316 -196 -467 -360 -85 -93 -230 -274 -243
-305 -3 -8 -35 -60 -72 -115 -98 -149 -127 -195 -155 -251 -32 -62 -3 -29 40
46 17 28 66 106 110 171 44 66 85 129 91 139 6 10 14 16 19 11 5 -4 5 -1 1 6
-4 7 -2 12 7 12 7 0 24 11 37 25 13 14 29 25 36 25 7 0 15 6 17 13 4 9 6 9 6
0 1 -6 -7 -18 -17 -25 -18 -13 -97 -118 -89 -118 2 0 37 34 78 75 41 41 81 75
89 75 11 -1 10 -5 -5 -18 -36 -31 -106 -145 -96 -155 7 -7 18 -3 33 11 100 89
118 103 118 96 0 -5 -7 -18 -15 -28 -22 -29 -18 -39 7 -22 29 21 38 20 39 -1
0 -11 3 -13 6 -5 2 6 9 12 15 12 6 0 26 14 45 30 18 17 40 30 47 30 18 0 48
35 39 45 -5 4 -2 5 5 0 9 -5 26 4 48 26 19 18 34 30 34 25 0 -12 -65 -108
-118 -175 -29 -35 -52 -69 -52 -75 0 -12 -1 -13 88 99 46 59 79 91 93 92 14 1
19 -3 15 -12 -5 -15 35 11 104 65 49 39 65 35 18 -5 -20 -18 -28 -30 -20 -32
13 -5 7 -23 -9 -23 -6 0 -7 5 -4 10 3 6 2 10 -4 10 -16 0 -22 -18 -9 -23 8 -2
1 -14 -18 -30 -58 -49 -204 -207 -252 -272 -4 -5 -31 -40 -60 -77 -29 -38 -50
-68 -46 -68 11 0 68 64 139 155 123 159 383 404 417 393 6 -2 -8 -16 -31 -31
-86 -57 -312 -289 -296 -305 3 -4 13 1 20 11 7 10 16 18 19 18 17 -2 23 1 51
27 17 15 57 44 90 63 33 20 90 55 127 77 36 23 79 44 95 48 15 4 33 10 38 14
11 9 220 60 238 59 19 -1 -56 -27 -80 -28 -12 -1 -37 -8 -55 -16 -18 -8 -53
-19 -77 -25 -23 -6 -41 -13 -38 -16 2 -3 38 4 79 16 40 11 117 24 170 28 97 8
124 0 45 -14 -32 -5 -37 -8 -23 -14 17 -6 18 -7 3 -13 -9 -3 -17 -13 -17 -20
0 -8 -19 -20 -42 -27 -61 -18 -223 -86 -284 -119 -37 -20 -56 -25 -63 -18 -8
8 -11 8 -11 0 0 -7 -9 -14 -20 -18 -32 -10 -165 -156 -153 -169 3 -3 12 2 20
12 13 15 13 15 3 -6 -8 -17 -17 -21 -33 -17 -16 5 -18 4 -8 -4 12 -8 8 -17
-22 -50 -51 -57 -47 -71 6 -19 23 24 74 70 111 103 38 33 77 68 88 78 20 19
23 15 8 -14 -7 -11 -7 -19 -1 -19 5 0 11 3 13 8 7 15 76 61 103 68 22 5 26 4
19 -7 -4 -7 -9 -22 -9 -32 -1 -10 -8 -23 -16 -28 -11 -7 -11 -9 4 -9 9 0 17 5
17 10 0 6 6 10 13 10 7 0 18 9 25 20 7 11 23 20 36 20 14 0 28 5 31 10 3 6 10
10 15 10 5 0 -18 -27 -51 -59 -34 -34 -55 -62 -49 -66 5 -3 -9 -20 -32 -38
-39 -30 -97 -101 -98 -120 0 -4 16 4 35 19 45 34 45 25 -1 -26 -20 -22 -31
-40 -24 -40 7 0 -4 -20 -24 -45 -21 -25 -35 -49 -32 -53 3 -4 -11 -25 -30 -46
-25 -28 -33 -44 -29 -59 5 -16 4 -18 -3 -8 -7 9 -12 10 -16 2 -4 -6 -4 -11 0
-11 4 0 -3 -8 -14 -19 -12 -10 -22 -25 -22 -34 0 -8 -22 -39 -48 -69 -100
-111 -112 -125 -152 -182 -41 -58 -49 -84 -15 -46 19 21 43 28 25 8 -23 -28
-78 -106 -115 -165 -22 -35 -45 -61 -51 -59 -6 3 -11 -1 -11 -7 1 -21 -25 -77
-35 -77 -6 0 -8 -12 -4 -27 5 -24 5 -25 -5 -9 -8 14 -8 24 2 42 7 13 10 26 8
29 -4 4 -62 -100 -64 -115 -3 -15 -51 -156 -55 -160 -5 -5 -41 -105 -127 -355
-75 -221 -168 -555 -160 -578 2 -6 13 22 25 63 11 41 50 163 87 270 36 107 71
211 77 230 6 19 21 59 34 88 13 29 24 58 24 64 0 6 3 9 6 6 3 -3 -2 -28 -10
-54 -43 -139 -70 -232 -102 -354 -20 -74 -45 -166 -55 -205 -11 -38 -22 -110
-25 -160 -6 -89 -12 -127 -53 -320 -61 -293 -116 -617 -137 -810 -3 -33 -13
-91 -21 -130 -9 -38 -15 -82 -14 -98 1 -15 -6 -91 -14 -170 -9 -78 -20 -187
-25 -242 -5 -55 -13 -124 -19 -154 -13 -62 -10 -71 12 -38 19 29 35 138 77
512 6 55 18 150 26 210 7 61 16 137 18 170 3 33 19 157 37 275 17 118 35 244
39 280 5 36 18 109 29 163 12 55 21 107 21 118 0 10 4 19 9 19 10 0 26 56 46
162 7 42 20 89 28 105 8 15 27 82 42 148 15 66 34 131 42 145 13 24 14 24 10
-15 -5 -50 -55 -246 -67 -260 -4 -5 -20 -68 -34 -140 -14 -71 -33 -155 -41
-185 -8 -30 -15 -64 -15 -76 0 -12 -9 -69 -19 -125 -36 -192 -102 -641 -116
-789 -4 -36 -13 -103 -21 -150 -8 -47 -14 -112 -14 -145 0 -33 -6 -100 -14
-150 -8 -49 -17 -144 -21 -210 -3 -66 -10 -144 -16 -174 -23 -134 -1 -131 31
4 13 52 27 95 32 95 11 0 10 -14 -7 -95 -20 -94 -20 -126 1 -118 11 4 15 15
12 34 -3 15 -1 26 3 23 4 -2 13 13 19 33 14 44 30 65 30 41 0 -9 4 -18 9 -20
4 -1 0 -37 -10 -78 -33 -134 -19 -122 33 28 35 102 36 105 37 62 1 -25 -6 -77
-14 -115 -21 -99 -18 -119 9 -60 29 64 61 194 91 365 40 233 55 306 76 387 45
168 91 439 134 778 37 297 41 315 74 315 15 0 22 -9 27 -37 3 -21 16 -55 27
-75 19 -35 20 -42 8 -140 -7 -57 -21 -173 -32 -258 -23 -190 -55 -395 -74
-475 -8 -33 -24 -103 -34 -155 -32 -154 -58 -252 -69 -259 -13 -8 -32 -57 -31
-79 0 -9 6 1 14 23 7 22 13 37 14 33 4 -25 -67 -287 -89 -329 -5 -9 -11 -34
-14 -55 -4 -25 -3 -30 2 -15 8 27 32 41 32 19 1 -25 40 98 75 237 102 409 223
1059 245 1318 8 94 20 143 20 81 1 -135 -31 -387 -95 -764 -37 -216 -183 -817
-251 -1038 -20 -62 -33 -118 -31 -125 3 -7 6 -3 7 8 0 11 10 36 21 55 l20 35
-5 -45 c-10 -91 -153 -457 -183 -467 -12 -4 -10 8 21 117 26 91 8 71 -39 -45
-9 -22 -24 -49 -34 -60 -10 -11 -26 -42 -35 -70 -9 -27 -21 -57 -26 -65 -9
-13 -11 -13 -20 0 -6 10 -10 11 -10 3 0 -7 -5 -13 -11 -13 -6 0 -8 7 -5 16 4
9 2 13 -5 8 -6 -3 -24 -36 -40 -72 -16 -36 -32 -63 -34 -60 -3 3 1 33 9 67 17
74 4 78 -32 10 l-24 -44 6 35 c4 19 11 94 16 165 5 72 14 148 19 170 11 41 15
102 6 94 -2 -3 -11 -34 -19 -70 -35 -153 -38 -161 -49 -150 -7 7 -4 49 13 143
30 180 21 202 -18 43 -18 -71 -48 -161 -67 -200 l-35 -70 7 57 c3 31 2 65 -1
75 -6 14 -12 8 -28 -30 -30 -70 -42 -60 -33 29 5 55 4 74 -4 70 -6 -4 -11 -14
-11 -23 0 -9 -3 -13 -7 -9 -4 3 -12 -6 -19 -21 l-11 -28 -7 35 c-5 22 -1 62 8
103 9 38 16 73 16 80 0 22 -18 -8 -34 -58 -9 -27 -27 -68 -41 -90 -24 -38 -25
-38 -19 -10 10 45 83 286 90 297 4 5 12 31 19 56 43 154 59 201 101 298 51
118 74 215 74 309 0 33 12 103 26 155 33 125 53 211 53 230 -1 28 -17 -23 -41
-127 -12 -57 -26 -103 -30 -103 -4 0 -5 15 -2 33 2 17 13 133 24 257 28 312
28 308 136 975 41 249 105 490 230 865 64 190 123 359 132 375 15 29 28 75 37
125 2 14 11 47 19 75 33 106 -3 47 -56 -93 -11 -29 -22 -52 -24 -50 -6 7 27
121 52 181 14 33 23 64 21 70 -6 19 -42 -59 -83 -179 -58 -170 -82 -215 -49
-94 30 110 10 105 -34 -9 -44 -113 -54 -133 -61 -121 -4 6 -14 -6 -23 -27 -32
-73 -103 -402 -93 -428 7 -18 -8 -116 -17 -113 -5 2 -12 -4 -17 -12 -7 -13
-58 -205 -80 -300 -4 -19 -15 -66 -24 -105 -8 -38 -27 -119 -41 -180 -34 -146
-81 -375 -150 -740 -32 -165 -70 -363 -86 -440 -16 -77 -32 -153 -34 -170 l-5
-30 11 28 c17 43 28 31 23 -25 l-5 -53 28 52 c15 29 31 53 36 53 9 0 7 -16 -8
-86 l-7 -29 21 30 c26 37 26 28 1 -60 -19 -70 -19 -70 0 -46 11 13 20 31 20
42 0 10 5 21 10 24 20 12 10 -51 -26 -170 -8 -27 -32 -115 -54 -195 -59 -216
-72 -260 -82 -260 -13 0 -9 37 17 169 29 142 29 145 11 111 -7 -14 -21 -64
-31 -112 -11 -55 -30 -109 -51 -145 -18 -32 -34 -52 -34 -44 0 7 -6 11 -15 7
-12 -4 -15 4 -15 37 l-1 42 -15 -30 c-13 -28 -14 -25 -9 50 3 44 19 141 35
215 34 151 33 150 21 150 -5 0 -16 -17 -25 -37 l-16 -38 6 70 5 70 -19 -43
c-22 -52 -35 -57 -42 -17 l-6 30 -11 -30 c-11 -29 -11 -27 -12 25 -1 39 -4 51
-11 40 -5 -8 -10 -29 -10 -47 0 -17 -5 -35 -10 -38 -17 -10 -12 85 10 181 10
49 32 143 49 209 16 66 37 157 47 203 18 86 40 115 28 37 -7 -49 10 -65 19
-18 2 16 16 93 31 173 14 80 32 182 41 227 8 46 17 120 21 165 4 46 12 106 20
133 7 28 19 75 28 105 8 30 26 116 41 190 15 74 40 188 56 252 16 64 29 126
29 138 0 12 4 19 9 15 9 -5 28 70 61 236 6 30 8 64 4 75 -5 16 -4 17 6 4 9
-12 10 -5 6 30 -4 30 -3 38 3 25 6 -15 8 -9 7 23 0 26 5 46 13 51 7 5 10 14 6
20 -4 7 -2 17 3 24 5 7 17 36 27 66 10 32 20 49 25 41 8 -12 40 56 40 88 1 9
8 35 16 57 9 22 19 54 24 70 l8 30 1 -28 c1 -30 -28 -146 -58 -229 -10 -29
-31 -102 -46 -163 -14 -60 -30 -126 -36 -146 -5 -20 -9 -45 -9 -55 1 -28 25
44 50 149 12 51 26 101 31 112 4 11 24 72 43 135 31 104 39 129 67 195 17 42
49 158 49 179 0 35 48 184 81 252 16 33 29 67 29 75 -1 8 -10 -4 -21 -26 -11
-22 -26 -47 -34 -55 -32 -31 -14 25 25 80 59 84 111 171 108 182 -5 13 -76
-84 -89 -121 -10 -29 -29 -43 -29 -21 0 20 41 91 73 128 40 45 101 141 95 148
-11 11 -119 -140 -164 -228 -19 -38 -23 -53 -13 -58 9 -6 6 -14 -10 -31 -11
-12 -21 -28 -21 -35 0 -7 -6 -17 -13 -21 -7 -4 -21 -19 -31 -33 l-18 -25 7 35
c8 42 45 161 55 175 10 16 32 96 27 102 -3 2 -8 -5 -12 -16 -3 -12 -11 -21
-16 -21 -5 0 -9 -4 -9 -9 0 -6 -17 -47 -39 -93 -21 -46 -56 -120 -77 -166 -30
-64 -40 -79 -46 -65 -5 12 -6 8 -3 -12 2 -17 -2 -41 -10 -55 -11 -20 -14 -21
-15 -7 0 24 -20 11 -20 -12 0 -10 -9 -40 -21 -65 -11 -26 -22 -66 -24 -89 -1
-23 -16 -96 -33 -162 -61 -238 -83 -354 -127 -680 -39 -282 -82 -576 -93 -623
-13 -57 -26 -69 -18 -17 3 22 13 114 21 205 9 91 17 183 20 205 2 22 9 90 15
150 17 177 78 521 119 673 5 17 6 32 2 32 -7 0 -55 -185 -56 -215 0 -5 -6 -30
-12 -55 -28 -109 -44 -191 -52 -275 -15 -133 -31 -255 -41 -300 -4 -22 -14
-83 -20 -135 -22 -175 -57 -365 -73 -397 -10 -18 -17 -46 -17 -63 0 -18 -4
-29 -10 -25 -6 3 -10 -4 -10 -16 0 -12 -3 -20 -6 -17 -3 3 -1 39 5 79 14 100
1 118 -29 40 -12 -34 -25 -61 -28 -61 -2 0 -2 22 2 50 4 27 11 118 16 202 5
84 12 180 16 213 8 69 -2 68 -21 -2 l-13 -48 4 65 c3 36 7 79 9 95 4 22 2 26
-5 15 -8 -13 -10 -12 -11 5 -4 53 -49 -322 -49 -404 0 -25 -15 -95 -35 -156
-19 -60 -50 -160 -69 -221 -51 -164 -76 -348 -83 -619 -9 -365 12 -515 112
-820 25 -76 64 -211 85 -298 62 -253 178 -603 258 -782 51 -113 145 -279 185
-328 19 -23 37 -53 41 -67 5 -14 28 -72 54 -130 92 -213 178 -297 387 -381 44
-17 101 -42 126 -54 61 -32 151 -54 246 -61 47 -4 101 -16 136 -31 59 -24 134
-36 142 -23 3 4 -12 11 -33 15 -20 3 -61 14 -90 23 -46 14 -50 17 -32 24 23 8
155 -26 166 -43 3 -5 24 -8 47 -8 l42 2 -35 6 c-28 6 -17 9 55 15 50 4 101 12
115 18 l25 11 -25 8 c-17 6 -9 7 25 3 32 -3 45 -2 36 4 -11 8 -11 11 0 18 10
6 2 12 -26 20 -56 15 -50 28 15 34 l55 5 -50 13 c-114 30 -114 30 -30 31 l80
1 -56 23 c-52 22 -112 57 -96 57 3 0 36 -11 73 -25 36 -14 85 -25 108 -25 38
1 40 2 22 15 -19 14 -19 15 7 15 28 0 36 14 15 24 -7 3 1 5 17 4 17 0 40 0 53
0 23 2 23 2 -5 27 l-28 25 55 -6 55 -7 -29 32 c-17 17 -24 31 -17 31 7 0 11 6
8 14 -4 10 0 12 16 8 21 -5 21 -4 5 15 -10 11 -18 23 -18 26 0 4 8 7 18 7 15
1 15 2 -3 17 -19 15 -19 15 5 8 75 -21 104 -15 59 13 -32 20 -19 23 39 8 29
-8 52 -11 52 -8 0 4 -22 22 -48 41 -26 18 -38 30 -27 26 11 -4 38 -9 60 -12
l40 -4 -44 21 c-62 29 -45 35 30 11 75 -25 70 -25 62 -5 -3 8 -29 31 -57 50
-28 19 -49 34 -46 35 47 6 78 5 97 -2 17 -6 23 -5 23 6 0 7 -8 16 -17 18 -10
3 6 5 35 6 51 1 52 1 33 20 -11 11 -27 22 -38 25 -10 3 6 3 36 0 46 -4 53 -3
43 9 -7 8 -9 17 -5 21 4 3 -2 13 -13 21 -26 20 -7 19 78 -5 40 -11 84 -20 98
-20 l24 0 -24 17 c-14 9 -44 33 -66 52 -23 20 -60 49 -83 65 -66 48 -39 42 64
-13 104 -55 122 -62 81 -30 -14 11 -26 26 -26 34 0 7 -10 19 -22 28 -29 19
-19 31 16 18 14 -6 26 -7 26 -2 0 9 -65 63 -100 81 -15 8 -20 15 -12 18 13 4
74 -30 109 -61 13 -11 23 -16 23 -11 0 18 -17 36 -56 59 -44 27 -43 29 3 16
19 -6 35 -6 38 -1 3 5 12 7 20 3 8 -3 15 -2 15 2 0 9 -37 61 -66 93 -29 30
-26 36 12 22 28 -11 28 -11 9 9 -21 24 -11 27 25 6 14 -8 28 -14 33 -15 12 0
8 45 -5 59 -11 10 -7 11 17 5 l30 -7 -22 25 c-13 13 -23 27 -23 30 0 8 61 -6
88 -21 30 -16 28 -8 -8 29 -28 29 -41 58 -20 45 15 -9 12 2 -6 30 -27 41 -1
28 55 -26 28 -29 54 -49 58 -46 3 4 -12 30 -34 59 -43 58 -83 122 -83 132 0
11 42 -14 73 -42 31 -30 35 -22 8 16 -10 15 -23 36 -29 48 -10 19 -9 21 13 16
20 -3 25 0 25 16 0 12 -4 24 -10 27 -15 9 -12 25 4 19 7 -3 18 -16 24 -28 6
-13 25 -34 42 -46 l32 -23 -26 52 c-15 28 -22 51 -17 51 6 0 13 -4 16 -10 9
-15 25 -12 25 5 0 8 -4 15 -10 15 -5 0 -10 5 -10 11 0 5 4 8 9 5 5 -4 7 3 4
14 -6 24 5 25 37 3 18 -13 22 -13 18 -2 -3 8 -14 34 -23 59 -10 25 -36 71 -57
103 -22 33 -38 61 -35 63 2 2 16 -13 30 -33 15 -21 42 -53 61 -71 l35 -32 -9
27 c-28 89 -40 108 -106 167 -114 101 -166 164 -243 294 -17 29 -31 57 -31 63
0 10 -2 11 224 -91 167 -74 344 -140 378 -140 22 0 223 -57 250 -71 25 -13 52
-11 67 4 23 21 -7 -31 -67 -117 -31 -46 -48 -76 -38 -73 32 12 5 -14 -73 -71
-93 -68 -108 -82 -90 -82 8 0 -10 -24 -39 -53 -47 -48 -68 -78 -42 -62 21 13
9 -10 -21 -41 l-31 -32 29 5 28 6 -40 -43 -40 -43 43 6 c44 5 51 0 30 -22 -11
-11 -6 -13 25 -8 20 3 37 4 37 1 0 -2 -21 -17 -47 -34 -53 -33 -44 -37 35 -16
64 17 67 7 6 -22 -53 -26 -54 -36 -3 -22 18 5 54 14 78 20 24 7 52 13 62 15
25 5 14 -19 -17 -35 -31 -17 -34 -55 -3 -47 19 5 19 4 6 -11 -7 -9 -18 -23
-22 -31 -8 -15 4 -13 50 5 16 6 15 3 -5 -14 l-25 -21 35 10 c19 6 43 12 52 14
9 2 26 9 37 15 26 13 27 3 4 -24 -15 -16 -10 -15 29 7 55 32 73 35 39 6 -38
-32 -19 -31 40 1 71 39 83 37 35 -5 -47 -43 -30 -45 35 -5 27 16 49 26 48 22
0 -4 -29 -31 -64 -61 -66 -56 -81 -81 -25 -41 36 26 50 22 20 -5 -11 -10 -20
-24 -20 -32 0 -7 -4 -13 -10 -13 -5 0 -10 -5 -10 -10 0 -6 16 -3 38 6 66 29
78 26 28 -6 -26 -17 -46 -33 -43 -36 6 -6 162 51 208 76 20 11 40 20 45 20 15
0 -92 -63 -163 -97 -40 -18 -73 -35 -73 -37 0 -5 62 9 125 28 27 9 51 13 54
11 6 -7 2 -10 -49 -39 -44 -25 -44 -26 -15 -26 17 0 48 5 70 10 61 14 54 3
-20 -30 -37 -17 -66 -33 -63 -35 3 -3 34 1 69 10 93 21 93 18 4 -25 l-80 -39
50 5 c28 3 78 15 113 26 35 11 65 18 68 16 5 -6 -116 -58 -133 -58 -6 0 -15
-4 -18 -10 -8 -12 70 -4 142 16 72 20 75 18 18 -17 -27 -17 -54 -35 -59 -40
-10 -9 58 8 84 21 8 4 28 10 45 14 l30 8 -25 -20 c-14 -10 -40 -27 -58 -36
-44 -23 -37 -27 18 -15 88 21 88 21 60 -1 l-25 -20 33 0 c20 0 31 -4 27 -10
-8 -14 67 -13 138 1 31 7 57 16 57 21 0 5 4 7 10 3 13 -8 223 77 338 137 191
100 382 225 382 250 0 6 -10 2 -22 -9 -44 -39 -53 -35 -10 5 40 38 53 62 33
62 -5 0 -23 -17 -40 -37 -26 -31 -33 -35 -43 -24 -11 11 -10 13 4 8 11 -4 15
-2 13 6 -3 7 10 28 28 47 38 41 81 106 91 138 14 42 -9 21 -58 -54 -27 -41
-61 -81 -76 -89 -16 -8 -38 -27 -49 -42 -25 -31 -61 -58 -61 -45 0 4 9 18 20
30 11 12 20 25 20 29 0 5 15 24 33 43 37 38 72 89 66 94 -2 2 -33 -29 -69 -70
-36 -41 -69 -74 -74 -74 -4 0 -5 12 -2 28 6 26 6 26 -10 7 -8 -11 -20 -19 -25
-17 -5 1 -19 -2 -29 -8 -23 -12 -28 8 -8 28 9 9 9 12 -1 12 -8 0 -33 -16 -57
-35 -66 -55 -75 -43 -18 24 20 23 35 44 33 46 -2 2 -40 -23 -84 -55 -44 -32
-82 -56 -85 -54 -2 3 35 43 83 90 48 47 87 90 87 97 0 8 -3 8 -8 2 -4 -6 -32
-29 -62 -52 -30 -23 -80 -64 -110 -92 -30 -27 -57 -48 -59 -45 -3 3 0 8 6 12
30 19 94 144 80 158 -2 2 -22 -19 -44 -48 -57 -75 -121 -145 -155 -170 -27
-19 -25 -14 17 48 26 38 54 77 63 87 8 9 12 20 9 23 -4 4 -47 -35 -96 -87 -49
-52 -91 -92 -95 -88 -3 3 19 36 49 75 122 154 126 179 10 64 -47 -47 -85 -82
-85 -79 0 4 12 27 26 53 24 44 21 63 -6 31 -7 -8 -19 -15 -27 -15 -25 0 -25
28 1 69 14 22 26 46 26 52 0 13 38 77 57 97 7 7 13 19 13 25 0 18 -57 -54 -79
-100 -21 -43 -41 -63 -41 -42 0 7 -29 -16 -65 -51 -36 -34 -69 -60 -72 -56 -4
3 5 19 19 34 14 15 37 46 51 68 14 23 37 54 51 69 14 15 26 33 26 39 0 6 -17
-7 -37 -29 -141 -156 -236 -255 -241 -251 -6 7 118 174 187 251 82 92 103 122
106 153 1 15 10 40 20 55 29 44 6 46 -31 2 -22 -26 -31 -47 -28 -60 3 -12 -3
-29 -13 -40 -10 -11 -36 -43 -58 -70 -21 -28 -47 -59 -57 -70 -9 -11 -35 -42
-58 -70 -84 -101 -95 -113 -102 -109 -11 7 60 126 87 146 6 5 5 11 -3 16 -7 5
-10 16 -7 24 4 9 2 19 -4 23 -7 4 -5 15 6 31 12 19 13 28 4 33 -8 5 -1 21 24
52 34 43 44 64 26 57 -5 -1 -47 -39 -94 -83 -104 -98 -117 -108 -117 -96 0 5
8 16 18 23 29 22 113 120 107 126 -3 3 -33 -21 -66 -54 l-60 -59 36 69 c35 68
68 118 101 151 9 9 14 18 11 21 -3 3 -29 -20 -58 -51 -60 -63 -113 -98 -102
-68 3 10 21 34 39 55 18 20 38 46 44 58 20 37 1 36 -28 0 -15 -19 -44 -54 -64
-76 -21 -23 -38 -46 -38 -52 0 -18 -88 -117 -97 -108 -3 3 15 30 41 60 25 30
46 61 46 70 0 8 4 17 9 20 5 4 35 45 66 94 57 86 111 152 127 152 4 0 -8 -22
-27 -49 -57 -80 -40 -81 37 -2 76 77 115 108 124 98 4 -3 -9 -20 -27 -38 -29
-28 -30 -30 -7 -16 15 9 40 17 55 17 27 0 27 -1 -20 -47 -26 -25 -45 -48 -43
-51 3 -2 24 14 48 37 24 22 51 41 61 41 17 0 16 -3 -4 -32 -13 -18 -49 -62
-82 -97 -32 -34 -56 -65 -53 -68 3 -3 41 31 85 75 59 59 81 89 86 115 4 22 22
50 51 78 24 24 44 46 44 51 0 4 18 44 40 90 21 46 39 76 39 68 0 -8 -33 -113
-72 -232 -40 -120 -70 -218 -67 -218 25 1 64 79 75 150 4 24 16 71 27 105 24
73 98 248 107 255 4 3 11 14 14 24 4 10 10 17 12 14 3 -3 -15 -67 -40 -142
-26 -76 -44 -143 -42 -149 2 -7 10 6 17 27 16 50 47 104 77 135 12 12 33 46
45 74 13 28 35 76 50 107 l27 55 -6 -40 c-3 -22 -15 -64 -25 -93 -19 -52 -17
-82 3 -52 23 34 -6 -60 -47 -153 -24 -53 -44 -100 -44 -103 0 -12 30 18 30 30
0 6 15 29 32 51 17 22 28 33 25 25 -34 -89 -97 -232 -133 -302 -33 -64 -41
-89 -32 -94 7 -4 10 -4 6 0 -4 5 2 18 13 29 18 20 90 160 142 277 13 30 32 89
42 130 19 77 69 250 104 355 11 33 24 76 30 95 10 34 11 33 7 -15 -3 -27 -8
-58 -11 -67 -4 -10 -3 -18 2 -18 8 0 19 22 66 145 9 22 16 32 16 23 1 -26 21
-22 21 4 0 37 18 6 22 -37 l4 -40 7 50 c13 80 17 95 26 95 5 0 11 -14 15 -32
8 -40 15 -33 31 34 l13 53 3 -90 c5 -140 -2 -274 -16 -345 -8 -36 -12 -66 -10
-69 2 -2 7 10 10 25 4 16 13 56 22 89 11 48 32 234 33 305 0 11 3 11 12 2 17
-17 13 -260 -5 -342 -9 -36 -23 -124 -32 -195 -9 -72 -20 -152 -25 -180 -5
-27 -15 -87 -21 -133 -7 -50 -17 -86 -25 -89 -13 -5 -37 -63 -29 -71 2 -3 9 8
15 23 10 26 12 27 23 10 12 -15 17 -6 39 71 15 52 29 129 33 184 7 104 24 198
37 206 4 3 8 15 8 26 0 12 2 19 5 17 2 -3 -2 -65 -11 -137 -20 -175 -18 -189
22 -126 17 27 39 71 49 98 15 42 73 116 90 116 3 0 5 -10 5 -21 0 -16 3 -19
13 -11 24 20 40 -3 33 -47 -7 -48 -3 -50 28 -16 l24 26 7 -49 c4 -34 1 -64
-10 -99 -17 -52 -17 -93 -1 -94 5 -1 20 19 33 42 13 24 23 36 23 26 0 -9 -5
-25 -10 -35 -11 -18 -51 -185 -46 -190 2 -1 11 12 20 30 l17 33 -6 -40 c-4
-22 -9 -53 -12 -70 -4 -20 -2 -27 4 -20 10 10 37 84 68 185 9 30 23 63 31 75
13 18 14 9 10 -83 -3 -63 -1 -100 5 -97 5 4 9 16 9 28 0 12 7 31 15 41 8 11
13 27 10 36 -3 9 2 25 10 36 16 19 16 19 11 -1 -3 -11 -2 -26 2 -33 12 -18 37
14 104 128 114 196 168 322 218 510 66 254 110 602 110 876 0 92 -24 388 -35
424 -2 8 -16 119 -30 245 -43 385 -112 740 -204 1037 -16 53 -33 113 -37 132
-3 20 -10 36 -16 36 -5 0 -7 4 -4 8 11 18 -268 883 -366 1137 -124 317 -434
930 -563 1110 -69 97 -167 217 -172 211 -3 -3 -39 24 -80 59 -286 244 -584
357 -903 342 -69 -4 -143 -11 -164 -18 -35 -10 -40 -9 -49 8 -21 40 -156 160
-214 191 -74 39 -219 77 -318 85 -38 2 -111 1 -162 -4z m1488 -609 c24 -11 53
-27 64 -36 19 -16 19 -16 -5 -9 -48 14 -120 48 -120 56 0 13 13 11 61 -11z
m-31 -48 c0 -7 5 -10 11 -7 6 4 45 -8 86 -26 42 -18 71 -35 65 -37 -10 -3 -61
16 -106 40 -13 7 -21 6 -26 -2 -5 -8 -22 -5 -61 10 -73 29 -77 35 -19 35 35 0
50 -4 50 -13z m-1097 -98 c-4 -10 0 -12 11 -8 26 10 19 -22 -13 -58 l-29 -33
6 30 c5 27 3 29 -11 17 -39 -33 -44 23 -6 64 17 18 26 21 35 13 7 -6 10 -17 7
-25z m1155 -13 c42 -21 91 -46 107 -56 l30 -16 -30 5 c-16 4 -40 8 -52 11 -41
7 -163 73 -163 87 0 16 34 7 108 -31z m-2778 19 c0 -5 -5 -10 -11 -10 -5 0 -7
5 -4 10 3 6 8 10 11 10 2 0 4 -4 4 -10z m31 -33 c-10 -9 -11 -8 -5 6 3 10 9
15 12 12 3 -3 0 -11 -7 -18z m-84 -12 c0 -8 -4 -12 -9 -9 -5 3 -6 10 -3 15 9
13 12 11 12 -6z m1728 -36 c-5 -15 -4 -19 4 -15 6 4 11 1 11 -7 0 -8 7 -20 15
-27 8 -7 15 -24 15 -37 0 -17 4 -23 13 -20 18 7 40 -71 32 -106 -6 -21 -4 -27
9 -27 15 0 15 -2 0 -25 -15 -23 -15 -25 0 -19 12 5 15 2 10 -10 -4 -9 -3 -16
2 -15 5 1 20 1 34 0 19 -1 21 -4 12 -13 -18 -18 -15 -28 8 -28 17 0 19 -3 10
-19 -16 -31 -13 -71 7 -71 15 0 15 -1 0 -18 -10 -10 -14 -22 -10 -26 8 -8 -23
-36 -39 -36 -4 0 -7 10 -5 23 1 15 -2 21 -13 18 -65 -18 -95 -10 -68 17 9 9 8
13 -5 17 -9 4 -13 13 -10 21 4 10 0 12 -13 7 -16 -6 -17 -4 -7 8 9 11 7 19
-12 37 -19 18 -23 30 -18 58 4 25 2 39 -7 44 -11 7 -11 12 -2 22 15 19 -20 52
-37 35 -14 -14 -15 2 -1 39 6 15 12 47 14 71 3 38 1 42 -12 31 -12 -10 -11 -6
3 22 31 61 75 97 60 49z m-1755 8 c0 -2 -10 -12 -22 -23 l-23 -19 19 23 c18
21 26 27 26 19z m2795 -7 c3 -6 -1 -7 -9 -4 -18 7 -21 14 -7 14 6 0 13 -4 16
-10z m-2491 -25 c-4 -8 -1 -15 5 -15 6 0 11 4 11 9 0 5 7 11 14 14 10 4 13 1
9 -9 -6 -16 -6 -16 -45 -18 -33 -2 -33 -2 -12 18 19 20 25 20 18 1z m2761 -8
c1 -1 37 -42 81 -92 82 -92 132 -165 113 -165 -6 0 -31 20 -55 45 -24 24 -44
41 -44 38 0 -15 -29 33 -30 48 0 9 -7 19 -15 23 -8 3 -15 12 -15 21 0 8 -5 15
-10 15 -6 0 -15 10 -21 23 -6 13 -23 31 -37 41 l-27 17 30 -6 c16 -4 30 -7 30
-8z m112 -42 c64 -58 118 -123 110 -131 -4 -4 -104 94 -186 182 -2 2 0 4 5 4
5 0 37 -25 71 -55z m-427 -7 c0 -6 -6 -5 -15 2 -8 7 -15 14 -15 16 0 2 7 1 15
-2 8 -4 15 -11 15 -16z m-1741 -2 c-10 -9 -79 -14 -74 -5 4 5 22 9 42 9 20 0
34 -2 32 -4z m1841 -103 c0 -4 -20 13 -45 37 -25 24 -45 49 -45 54 0 6 20 -10
45 -36 25 -26 45 -51 45 -55z m246 19 c67 -62 133 -156 120 -170 -3 -3 -8 -3
-9 -1 -2 2 -47 55 -100 116 -54 62 -97 115 -97 118 0 14 21 -1 86 -63z m-349
-24 c59 -50 89 -80 108 -110 31 -50 2 -29 -84 57 -83 85 -97 113 -24 53z m68
-26 c-5 -5 -49 19 -57 32 -17 25 -6 25 27 -1 19 -15 32 -29 30 -31z m305 -91
c19 -25 27 -40 18 -35 -19 11 -98 105 -98 117 0 11 40 -30 80 -82z m254 -6
c178 -253 295 -445 458 -750 108 -201 136 -282 106 -301 -7 -5 -9 -2 -5 9 7
18 -42 119 -55 111 -4 -3 -8 2 -8 10 0 8 -13 36 -28 63 -93 156 -101 171 -195
343 -16 30 -37 69 -47 85 -10 17 -29 50 -42 75 -70 128 -137 243 -180 312 -26
43 -48 82 -48 88 0 5 -4 10 -9 10 -5 0 -12 8 -15 18 -10 26 24 -11 68 -73z
m24 60 c-3 -3 -9 2 -12 12 -6 14 -5 15 5 6 7 -7 10 -15 7 -18z m52 -70 c0 -5
-9 1 -20 15 -11 14 -20 30 -20 35 0 6 9 -1 20 -15 11 -14 20 -29 20 -35z
m-718 16 c80 -45 94 -56 118 -85 22 -27 17 -25 -41 17 -37 26 -71 47 -76 47
-6 0 -18 9 -28 20 -23 25 -15 25 27 1z m38 -77 c10 -10 10 -14 2 -14 -7 0 -12
4 -12 8 0 5 -12 13 -27 20 -26 10 -26 11 -3 6 14 -4 32 -12 40 -20z m739 -29
c0 -5 -6 -1 -14 9 -8 11 -15 24 -15 30 0 5 7 1 15 -10 8 -10 14 -23 14 -29z
m-2795 11 c-10 -8 -21 -12 -24 -10 -5 6 21 24 34 24 6 0 1 -6 -10 -14z m2063
-18 c40 -28 45 -48 6 -23 -60 39 -68 45 -53 45 7 0 29 -10 47 -22z m-54 -24
c50 -25 117 -80 117 -96 0 -4 -16 1 -35 12 -19 11 -35 15 -35 10 0 -22 -25 -8
-67 37 -64 70 -60 77 20 37z m817 -254 c29 -52 60 -106 69 -120 8 -14 27 -47
41 -75 15 -27 51 -97 81 -155 51 -96 83 -179 75 -187 -2 -2 -25 33 -52 79 -26
46 -51 85 -54 88 -6 5 -16 23 -121 215 -61 111 -163 321 -174 355 -10 34 68
-82 135 -200z m-2920 195 c-7 -8 -17 -15 -22 -15 -6 0 -5 7 2 15 7 8 17 15 22
15 6 0 5 -7 -2 -15z m2065 -9 c11 -7 34 -16 50 -20 35 -8 75 -43 125 -106 19
-25 37 -47 40 -50 11 -11 71 -133 67 -137 -9 -9 -61 49 -72 80 -22 64 -134
186 -143 157 -4 -10 42 -72 96 -130 18 -19 35 -46 39 -60 3 -14 13 -35 21 -47
8 -13 10 -23 6 -23 -5 0 -33 31 -62 69 -57 75 -115 131 -135 131 -15 0 -107
79 -107 91 0 16 53 -17 89 -55 19 -20 39 -36 43 -36 22 0 2 36 -47 87 -30 31
-55 58 -55 60 0 8 28 1 45 -11z m330 -24 c-3 -3 -11 0 -18 7 -9 10 -8 11 6 5
10 -3 15 -9 12 -12z m40 8 c3 -6 -1 -7 -9 -4 -18 7 -21 14 -7 14 6 0 13 -4 16
-10z m593 -72 c26 -49 36 -65 75 -125 15 -24 25 -43 22 -43 -3 0 5 -15 18 -32
32 -42 60 -98 53 -105 -3 -3 -13 13 -23 36 -10 22 -21 41 -25 41 -5 0 -8 6 -8
14 0 7 -7 19 -15 26 -8 6 -13 15 -12 18 1 4 -18 39 -42 77 -59 92 -96 161 -79
147 8 -6 24 -30 36 -54z m-590 40 c9 -9 12 -9 12 1 0 8 12 1 28 -15 32 -34
199 -242 288 -359 34 -44 75 -93 91 -110 16 -16 60 -77 98 -135 66 -101 127
-184 151 -205 14 -12 136 -213 189 -310 21 -38 61 -100 89 -137 28 -36 56 -74
63 -85 7 -10 5 2 -3 29 -9 27 -20 50 -25 54 -5 3 -9 15 -10 27 0 19 -1 20 -8
4 -5 -14 -16 0 -50 65 -40 76 -106 192 -156 273 -18 28 -91 122 -106 135 -3 3
-14 21 -25 40 -10 19 -24 40 -31 47 -6 7 -25 37 -43 67 -17 30 -52 76 -78 103
-47 47 -197 249 -337 454 -16 24 -37 49 -45 56 -13 11 -13 12 1 13 18 0 207
-231 303 -370 32 -47 75 -101 96 -120 20 -19 50 -55 66 -80 16 -25 31 -47 34
-50 4 -3 16 -22 29 -43 19 -31 45 -66 101 -134 27 -34 109 -168 140 -230 20
-40 43 -73 54 -76 10 -3 15 -10 11 -16 -3 -6 0 -11 7 -11 15 -1 93 -161 151
-310 22 -58 43 -107 47 -110 12 -9 20 -40 26 -98 3 -31 14 -75 23 -97 41 -94
33 -127 -11 -42 -11 23 -28 47 -37 53 -9 7 -32 35 -51 63 -33 49 -60 70 -41
34 5 -10 18 -36 29 -58 11 -22 23 -60 27 -85 4 -25 12 -54 17 -65 7 -14 3 -13
-11 5 l-21 25 0 -28 c0 -31 111 -259 117 -240 2 7 0 21 -6 32 -6 11 -11 26
-11 33 0 23 51 -83 91 -189 22 -57 39 -119 39 -138 0 -20 9 -72 21 -116 26
-99 19 -127 -9 -39 -20 61 -21 62 -16 20 3 -25 20 -101 39 -170 33 -125 45
-179 51 -235 1 -16 7 -56 11 -88 11 -70 0 -62 -15 13 -55 262 -93 413 -111
433 -4 4 12 -86 35 -200 41 -202 51 -253 80 -378 7 -33 16 -100 21 -150 l7
-90 12 80 c7 44 11 59 10 33 -2 -27 0 -48 5 -48 14 0 10 -374 -5 -495 -8 -60
-17 -150 -21 -199 -5 -62 -10 -85 -18 -77 -7 7 -7 62 2 183 14 214 14 354 0
511 -18 206 -28 197 -22 -20 4 -127 2 -241 -5 -305 -22 -189 -34 -312 -43
-403 -4 -49 -12 -119 -18 -155 -5 -36 -15 -105 -21 -155 -25 -203 -33 -242
-52 -254 -22 -14 -22 -8 -3 66 12 45 15 119 13 363 l-1 305 -8 -190 c-4 -104
-6 -208 -3 -230 9 -77 -39 -335 -62 -335 -8 0 -15 -26 -20 -67 l-7 -68 -13 50
c-7 28 -13 61 -14 75 0 20 -2 22 -10 10 -5 -8 -10 -25 -10 -37 0 -13 -4 -23
-10 -23 -6 0 -10 47 -10 120 0 108 -10 205 -40 370 -5 30 -19 111 -30 180 -12
69 -29 143 -37 165 -30 77 -55 244 -35 231 5 -3 5 16 1 42 -9 57 -11 87 -4 80
7 -6 36 -173 33 -185 -4 -16 13 -103 22 -108 17 -10 22 43 11 112 -14 90 -18
152 -9 147 5 -3 8 -20 8 -39 0 -18 9 -61 19 -96 11 -35 25 -91 32 -124 23
-112 39 -113 18 -1 -13 72 -5 82 20 25 l19 -44 -4 75 c-3 52 -1 69 5 55 8 -16
10 -12 10 23 1 27 -3 42 -11 42 -10 0 -10 2 0 8 9 6 11 33 7 108 -3 54 -8 142
-10 194 -2 52 -6 156 -10 230 -4 74 -8 203 -10 285 -3 83 -9 168 -14 190 -6
22 -9 41 -7 42 1 2 15 -24 29 -56 28 -63 54 -93 44 -50 -20 83 -38 214 -34
238 3 15 2 32 -3 37 -5 5 -20 43 -34 84 -55 170 -136 350 -189 425 -12 16 -40
66 -63 110 -22 44 -59 114 -82 157 -23 42 -42 87 -42 100 0 22 2 21 30 -12 36
-42 39 -23 6 34 -13 23 -27 59 -31 81 -8 46 -40 132 -72 193 -13 24 -23 46
-23 49 0 12 35 -31 79 -95 51 -75 75 -72 35 4 -14 27 -37 69 -50 94 -31 60
-48 102 -45 118 1 7 -7 28 -18 46 -12 18 -21 40 -21 47 0 8 10 -2 22 -21 12
-19 25 -37 29 -40 3 -3 18 -27 32 -55 14 -27 34 -59 44 -70 11 -11 22 -29 26
-39 4 -10 10 -16 13 -13 6 5 -23 68 -35 77 -4 3 -15 23 -24 45 -10 22 -22 47
-28 55 -5 8 -26 49 -47 90 -21 41 -43 75 -49 75 -19 0 -51 40 -79 100 -15 30
-30 58 -35 61 -15 9 -10 -24 7 -40 8 -9 14 -26 11 -38 -3 -19 -7 -15 -26 24
-22 48 -41 69 -41 47 0 -17 -65 67 -100 131 l-31 55 7 -45 c3 -25 11 -53 16
-64 7 -12 7 -16 0 -12 -10 6 -40 57 -105 176 -17 30 -47 80 -67 110 -37 56
-80 158 -80 189 0 9 -8 26 -18 37 -10 10 -28 37 -42 59 l-23 40 32 -30 c36
-33 155 -172 214 -250 21 -27 72 -95 113 -150 41 -55 82 -108 90 -118 8 -10
40 -54 70 -99 31 -45 65 -91 76 -102 27 -28 148 -212 148 -224 0 -6 4 -12 8
-14 5 -1 30 -43 57 -93 52 -98 138 -229 156 -241 7 -4 10 -3 7 2 -43 77 -114
200 -118 204 -3 3 -25 44 -49 91 -23 47 -60 108 -82 135 -42 53 -96 129 -161
227 -39 58 -125 176 -138 187 -3 3 -52 68 -110 145 -135 180 -250 323 -283
355 -27 25 -34 40 -19 40 4 0 13 -5 20 -12z m448 -211 c27 -45 59 -102 73
-127 13 -25 31 -56 41 -70 51 -75 95 -198 50 -140 -11 14 -20 28 -20 32 0 4
-14 31 -31 60 -54 91 -181 341 -171 334 6 -3 32 -43 58 -89z m-747 29 c-3 -3
-11 5 -18 17 -13 21 -12 21 5 5 10 -10 16 -20 13 -22z m285 8 c3 -8 2 -12 -4
-9 -6 3 -10 10 -10 16 0 14 7 11 14 -7z m37 -46 c10 -13 18 -29 19 -37 0 -8
-11 0 -25 19 -14 19 -25 35 -25 37 0 9 14 0 31 -19z m-940 -48 c53 -4 107 -14
120 -21 13 -7 27 -12 32 -11 4 1 7 -5 7 -13 0 -8 9 -15 20 -15 11 0 20 -7 20
-16 0 -8 4 -13 10 -9 5 3 17 1 27 -4 10 -5 39 -15 64 -21 26 -7 68 -27 94 -45
26 -19 53 -31 60 -29 16 7 75 -43 75 -63 0 -17 51 -95 58 -89 2 3 -3 21 -12
40 -9 19 -16 39 -16 45 0 6 -3 11 -8 11 -9 0 -36 60 -29 66 3 3 22 -10 43 -30
29 -28 35 -38 26 -49 -9 -11 -5 -20 18 -44 22 -22 28 -36 24 -56 -3 -20 3 -35
26 -58 16 -18 30 -37 30 -44 0 -6 14 -24 30 -40 17 -16 30 -34 30 -41 0 -6 7
-15 16 -18 9 -3 14 -13 11 -20 -3 -8 1 -17 8 -20 8 -3 25 -23 39 -45 14 -21
45 -54 70 -71 25 -18 44 -36 41 -40 -2 -3 19 -26 46 -50 67 -59 115 -148 145
-267 13 -54 24 -106 24 -115 0 -30 21 -25 -535 -148 -170 -37 -348 -76 -395
-85 -82 -17 -183 -40 -520 -120 -85 -20 -243 -54 -350 -76 -107 -22 -240 -52
-295 -65 -55 -14 -181 -43 -280 -64 -99 -22 -255 -57 -346 -79 -177 -43 -505
-111 -529 -111 -11 1 -10 3 3 11 9 6 14 15 11 21 -11 18 -13 71 -4 113 5 22
11 52 15 68 4 18 12 27 25 27 11 0 20 7 20 15 0 9 -10 15 -26 15 -14 0 -23 3
-21 8 3 4 1 31 -3 61 -6 45 -4 56 13 71 12 12 17 25 13 38 -4 12 -1 26 9 35 8
9 15 27 15 41 0 14 5 28 10 31 6 4 19 24 31 46 14 29 17 44 10 53 -8 10 2 28
41 72 36 42 47 60 36 62 -10 2 -14 11 -10 28 3 16 9 23 18 20 8 -3 14 1 14 9
0 8 6 15 13 15 9 0 9 3 -1 9 -20 12 25 53 50 45 12 -4 18 0 18 11 0 9 5 13 10
10 6 -3 10 -2 10 4 0 5 -6 12 -12 15 -9 3 -4 12 15 26 15 12 27 28 27 36 0 8
4 14 9 14 11 0 41 56 41 75 0 7 7 15 15 19 8 3 15 14 15 24 0 23 19 42 42 42
10 0 18 7 18 15 0 8 -4 15 -10 15 -26 0 14 54 48 65 17 5 22 2 22 -12 0 -15 2
-16 10 -3 14 21 12 30 -4 30 -20 0 -31 21 -16 30 7 4 21 5 31 3 16 -4 19 0 19
26 0 18 5 31 13 31 6 0 32 18 57 40 39 34 42 39 23 40 -17 0 -23 6 -22 23 0
12 -4 40 -9 62 -9 38 -10 38 -12 10 -2 -25 -3 -26 -7 -7 -6 30 15 56 33 42 9
-9 11 -7 7 8 -8 34 14 33 31 -1 l16 -32 0 33 c0 26 4 32 21 32 16 0 20 5 16
20 -4 15 0 20 14 20 10 0 19 -6 19 -12 1 -8 6 -6 14 5 7 9 25 17 40 17 26 0
65 17 77 34 4 4 16 5 27 2 13 -4 22 -1 25 8 5 12 13 13 37 6 26 -7 31 -6 26 5
-3 9 0 12 10 8 7 -3 14 -11 14 -19 0 -21 16 -17 47 12 21 19 29 22 31 11 5
-23 49 -8 79 27 16 19 28 26 30 19 7 -20 23 -15 23 7 0 13 5 18 15 14 8 -4 15
-12 15 -19 0 -15 34 -9 65 12 26 17 36 17 29 -2 -10 -24 14 -17 32 10 9 14 24
25 33 25 9 0 27 7 39 16 12 8 22 10 22 5 0 -6 7 -11 15 -11 8 0 15 4 15 8 0 5
23 9 51 9 28 0 54 5 58 11 3 5 29 12 56 16 112 12 211 29 225 37 8 5 26 6 40
3 14 -3 68 -9 121 -14z m-1651 -13 c0 -2 -10 -12 -22 -23 l-23 -19 19 23 c18
21 26 27 26 19z m1854 -22 c11 -8 15 -15 10 -15 -6 0 -19 7 -30 15 -10 8 -14
14 -9 14 6 0 19 -6 29 -14z m1376 -300 c0 -5 -5 -3 -10 5 -5 8 -10 20 -10 25
0 6 5 3 10 -5 5 -8 10 -19 10 -25z m-3046 -159 c-6 -15 -24 -23 -24 -11 0 8
24 34 28 30 1 -1 0 -10 -4 -19z m-57 -28 c-3 -8 -6 -5 -6 6 -1 11 2 17 5 13 3
-3 4 -12 1 -19z m2943 -53 c11 -13 10 -14 -4 -9 -9 3 -16 10 -16 15 0 13 6 11
20 -6z m64 -101 c3 -8 2 -12 -4 -9 -6 3 -10 10 -10 16 0 14 7 11 14 -7z
m-4073 -51 c-12 -20 -14 -14 -5 12 4 9 9 14 11 11 3 -2 0 -13 -6 -23z m4710
-660 c7 -16 15 -31 17 -35 2 -5 -1 -8 -6 -8 -5 0 -13 11 -16 25 -4 14 -11 25
-16 25 -6 0 -10 5 -10 10 0 19 17 10 31 -17z m-4737 -88 c-4 -8 -8 -15 -10
-15 -2 0 -4 7 -4 15 0 8 4 15 10 15 5 0 7 -7 4 -15z m3860 -147 c15 -62 33
-163 39 -225 7 -61 15 -115 20 -119 4 -4 8 -1 8 7 1 8 5 1 9 -16 11 -43 12
-205 1 -205 -21 0 -32 -76 -32 -231 -1 -196 -4 -225 -64 -552 -9 -48 -14 -91
-11 -96 3 -4 -1 -19 -8 -33 -8 -14 -19 -43 -26 -65 -14 -41 -56 -139 -71 -163
-5 -8 -14 -26 -19 -40 -6 -14 -19 -41 -30 -61 -11 -20 -16 -40 -12 -44 4 -5 1
-5 -5 -1 -9 5 -13 0 -13 -14 0 -12 -4 -19 -8 -16 -4 2 -14 -10 -21 -27 -7 -18
-17 -42 -22 -55 -5 -12 -13 -21 -17 -20 -12 4 -102 -93 -102 -109 0 -7 -4 -13
-10 -13 -5 0 -16 -12 -24 -27 -35 -64 -437 -454 -496 -481 -70 -32 -153 -62
-173 -62 -9 0 -25 -4 -35 -9 -58 -30 -226 -45 -336 -30 -75 10 -163 38 -189
59 -26 22 -90 61 -121 74 -19 8 -37 19 -40 25 -4 6 -15 11 -24 11 -9 0 -55 36
-102 81 -53 50 -99 85 -122 92 -21 7 -38 15 -38 19 0 5 -11 8 -24 8 -14 0 -28
5 -31 10 -3 6 -17 10 -31 10 -13 0 -24 4 -24 9 0 14 -82 71 -93 64 -5 -3 -12
-2 -16 3 -12 18 -70 54 -86 54 -8 0 -15 4 -15 9 0 4 -11 6 -25 3 -19 -3 -32 3
-49 23 -13 15 -28 25 -34 21 -11 -6 -19 0 -65 55 -68 81 -78 96 -89 134 -14
49 -33 73 -61 77 -12 2 -27 14 -33 27 -7 13 -16 26 -21 30 -4 3 -14 17 -22 31
-13 22 -13 24 1 12 13 -10 17 -9 22 5 8 19 5 29 -5 26 -19 -6 -65 82 -48 93 6
3 9 17 7 29 -3 15 -1 22 7 19 23 -9 51 -89 34 -100 -15 -9 -10 -20 12 -21 11
-1 23 6 26 15 4 9 11 21 17 25 6 5 1 5 -11 2 -17 -5 -23 -2 -23 10 0 12 6 15
19 10 11 -3 23 -1 26 6 6 8 10 7 16 -2 6 -10 9 -4 9 18 l0 32 -47 -4 c-34 -3
-42 -1 -28 5 17 7 17 9 3 9 -10 1 -18 5 -18 9 0 4 -22 21 -49 37 -48 29 -50
32 -54 80 -3 41 -5 46 -12 27 -6 -18 -10 -20 -16 -10 -5 7 -9 23 -9 36 0 13
-4 21 -9 18 -5 -3 -12 4 -15 17 -6 22 -7 22 -21 3 -8 -11 -15 -32 -15 -47 0
-15 -4 -31 -10 -34 -6 -4 -10 11 -11 37 -1 51 -9 73 -28 73 -8 0 -20 21 -28
50 -8 28 -20 55 -27 60 -7 6 -17 24 -23 40 -70 190 -91 261 -89 303 0 21 1 22
13 6 11 -15 17 -16 75 -1 71 18 70 19 87 -59 7 -29 16 -56 20 -58 4 -3 43 4
87 14 192 47 640 150 759 175 72 15 136 29 144 31 10 3 12 16 6 57 -14 95 -17
89 52 102 35 6 66 14 69 18 4 3 0 36 -8 72 -9 36 -12 67 -9 69 3 2 26 7 51 11
96 14 94 9 49 180 -17 64 -27 121 -22 126 15 15 248 67 258 58 5 -5 22 -64 37
-131 15 -67 32 -126 37 -131 5 -5 35 -3 70 4 71 15 75 13 85 -55 10 -67 15
-70 80 -56 32 6 63 9 70 7 7 -3 19 -33 26 -66 7 -36 18 -61 26 -61 22 0 768
168 828 186 15 5 17 12 12 43 -4 20 -10 52 -12 71 l-6 35 64 15 c70 17 69 15
54 112 l-8 46 59 13 c32 7 62 16 67 20 5 5 4 33 -3 69 -7 33 -9 65 -6 70 3 6
21 10 38 10 l32 0 29 -112z m-3874 72 c0 -5 -2 -10 -4 -10 -3 0 -8 5 -11 10
-3 6 -1 10 4 10 6 0 11 -4 11 -10z m2891 -92 l17 -67 -74 -17 c-41 -9 -74 -17
-74 -18 0 0 7 -26 15 -56 23 -85 22 -86 -42 -99 -31 -6 -62 -11 -69 -11 -7 0
-18 26 -27 63 -15 69 -8 66 -117 56 l-44 -4 -13 59 c-8 33 -10 63 -5 68 4 4
34 14 66 20 66 14 70 11 80 -56 11 -67 15 -70 82 -55 33 7 63 15 67 19 5 4 3
35 -4 68 -7 34 -10 64 -7 68 9 8 101 33 117 31 9 -1 21 -28 32 -69z m158 -57
c6 -10 13 -36 17 -58 10 -65 13 -66 83 -48 34 9 65 13 70 11 11 -7 36 -125 28
-132 -3 -4 -32 -13 -64 -20 -68 -16 -78 -9 -88 61 -10 64 -12 65 -85 48 -36
-8 -66 -16 -68 -17 -1 -2 4 -32 12 -66 8 -35 13 -67 11 -70 -8 -13 -126 -33
-134 -24 -9 10 -31 94 -31 117 0 9 21 19 63 27 34 7 65 15 69 17 3 1 0 31 -8
65 -8 34 -13 66 -11 72 3 9 76 31 114 35 7 0 17 -7 22 -18z m-2532 -103 c-3
-8 -6 -5 -6 6 -1 11 2 17 5 13 3 -3 4 -12 1 -19z m517 -254 c9 -37 15 -68 13
-70 -1 -2 -31 -10 -66 -18 -35 -8 -65 -17 -67 -19 -5 -5 22 -126 29 -134 9 -8
129 21 134 33 2 6 -3 38 -11 70 -8 32 -12 61 -8 65 13 11 126 29 134 21 4 -4
13 -34 19 -66 14 -68 14 -69 -71 -85 l-58 -12 14 -61 c8 -34 13 -67 10 -73 -4
-10 -90 -35 -121 -35 -9 0 -18 21 -25 58 -6 31 -13 62 -15 68 -2 9 -20 8 -66
-3 -34 -8 -67 -12 -74 -9 -7 2 -18 32 -24 66 l-12 62 -37 -5 c-20 -3 -53 -9
-73 -13 -36 -6 -36 -6 -48 39 -21 85 -17 94 39 106 86 19 86 19 101 -54 7 -36
17 -65 23 -65 15 1 127 28 131 32 2 2 -3 32 -11 67 -8 35 -13 65 -10 68 6 6
97 31 117 32 12 1 21 -17 33 -65z m-727 -166 c-3 -7 -5 -2 -5 12 0 14 2 19 5
13 2 -7 2 -19 0 -25z m1069 -28 c7 -20 14 -49 15 -65 4 -26 0 -31 -31 -41 -19
-6 -49 -14 -67 -17 -31 -6 -33 -5 -44 36 -6 23 -12 55 -13 71 -1 27 3 30 49
42 69 16 78 14 91 -26z m3551 -132 c-3 -8 -6 -5 -6 6 -1 11 2 17 5 13 3 -3 4
-12 1 -19z m-4274 -44 c5 -30 -8 -20 -18 15 -4 15 -3 21 3 17 5 -3 12 -17 15
-32z m4341 -436 c4 -24 3 -38 -4 -38 -5 0 -10 15 -10 33 0 17 -3 43 -5 57 -5
21 -4 22 3 5 5 -11 12 -37 16 -57z m-5639 5 c-18 -108 -57 -283 -70 -316 -8
-20 -15 -43 -15 -50 1 -16 30 23 30 41 0 7 7 20 15 29 14 13 15 3 9 -99 -3
-62 -12 -133 -19 -158 -25 -88 -34 -125 -39 -155 -2 -16 -7 -41 -10 -55 -4
-14 -11 -52 -16 -85 -6 -33 -18 -100 -28 -150 -17 -83 -19 -87 -26 -56 -6 24
-11 30 -17 20 -20 -33 -20 13 0 182 16 129 20 204 16 256 -6 57 -2 97 15 185
21 103 40 158 40 115 0 -9 5 -17 10 -17 13 0 35 52 49 115 29 137 53 235 57
235 3 0 2 -17 -1 -37z m-121 -32 c-4 -23 -9 -40 -11 -37 -3 3 -2 23 2 46 4 23
9 39 11 37 3 -2 2 -23 -2 -46z m143 -53 c-3 -8 -6 -5 -6 6 -1 11 2 17 5 13 3
-3 4 -12 1 -19z m-160 -70 c-3 -7 -5 -2 -5 12 0 14 2 19 5 13 2 -7 2 -19 0
-25z m4625 -158 c-2 -16 -8 -30 -13 -30 -5 0 -9 14 -9 30 0 18 5 30 13 30 9 0
12 -10 9 -30z m617 -354 c0 -22 -1 -37 -4 -34 -10 10 -25 111 -18 122 9 13 20
-32 22 -88z m69 -191 c0 -29 0 -29 -8 -5 -4 14 -8 36 -8 50 -1 23 0 23 8 5 5
-11 8 -33 8 -50z m9 -57 c-3 -8 -6 -5 -6 6 -1 11 2 17 5 13 3 -3 4 -12 1 -19z
m32 -188 l-1 -25 -7 25 c-4 14 -10 54 -14 90 l-5 65 13 -65 c8 -36 14 -76 14
-90z m-3459 10 c0 -8 9 -42 20 -75 l21 -60 -6 68 c-3 37 -4 67 -1 67 6 0 30
-71 51 -150 17 -64 44 -135 45 -115 0 6 -9 45 -20 89 -34 133 -22 118 34 -44
29 -85 62 -175 73 -200 11 -25 27 -63 34 -85 7 -22 19 -45 26 -51 9 -8 12 -23
8 -40 -4 -24 -4 -25 4 -9 13 27 13 72 1 80 -5 3 -10 18 -9 33 l1 27 10 -30 c9
-25 39 -84 92 -180 6 -11 14 -22 17 -25 9 -8 50 -122 45 -127 -2 -2 -17 13
-32 34 -16 21 -32 40 -36 41 -5 2 -8 12 -8 23 0 10 -4 19 -8 19 -9 0 -47 71
-44 83 2 8 -12 10 -20 1 -3 -3 6 -31 21 -62 15 -31 35 -83 45 -114 10 -31 49
-109 87 -173 83 -139 109 -189 109 -210 0 -9 10 -29 22 -45 31 -43 12 -52 -23
-11 -16 19 -27 37 -24 39 2 3 -7 19 -20 37 -14 17 -25 35 -25 39 0 4 -7 14
-15 22 -8 9 -18 27 -21 42 -4 15 -37 79 -74 142 -96 164 -151 270 -205 390
-25 58 -55 123 -66 145 -19 39 -19 39 -13 7 18 -101 250 -577 333 -684 12 -14
21 -31 21 -36 0 -6 4 -12 8 -14 8 -3 82 -132 82 -143 0 -3 -5 -3 -11 1 -13 8
-3 -35 12 -51 5 -5 9 -13 9 -17 0 -4 -16 9 -35 30 l-35 37 15 -37 c18 -44 8
-50 -18 -10 -11 15 -31 36 -45 46 l-25 19 7 -24 c3 -13 9 -37 12 -54 l6 -30
-16 23 c-26 34 -34 26 -25 -23 9 -51 19 -70 61 -133 17 -24 28 -46 25 -49 -3
-2 -13 8 -23 24 -10 15 -26 37 -36 48 -11 11 -25 29 -32 40 -13 18 -14 17 -10
-13 2 -18 11 -46 20 -63 12 -24 13 -30 2 -27 -7 3 -19 17 -26 31 -7 15 -17 27
-22 27 -18 0 -20 -20 -5 -51 21 -40 15 -46 -15 -14 -28 30 -51 34 -25 5 15
-17 16 -23 6 -33 -11 -9 -14 -9 -18 1 -3 6 -9 10 -14 6 -5 -3 -6 -10 -3 -16 4
-6 8 -25 10 -42 l2 -31 -34 40 c-41 48 -104 157 -104 179 0 9 -3 16 -7 16 -5
0 -16 14 -25 31 -11 18 -13 27 -5 24 6 -4 3 2 -8 12 -11 10 -29 35 -38 56 -10
20 -22 37 -27 37 -6 0 -10 7 -10 15 0 8 -4 15 -9 15 -5 0 -11 18 -15 39 -3 22
-11 43 -18 47 -8 5 -9 0 -4 -17 4 -13 9 -45 11 -70 5 -55 33 -131 46 -123 9 5
55 -62 100 -146 13 -25 29 -51 36 -58 6 -6 15 -21 18 -32 4 -12 18 -33 31 -47
14 -15 23 -32 20 -40 -3 -7 -1 -15 4 -18 6 -3 15 -16 21 -28 16 -33 -56 51
-93 108 -18 28 -36 53 -41 56 -5 3 -7 15 -5 25 2 10 -2 18 -8 17 -5 -1 -21 19
-35 45 -13 26 -27 49 -30 52 -4 3 -9 15 -13 26 -4 12 -16 24 -26 27 -11 3 -27
20 -35 39 -10 22 -14 27 -15 14 0 -25 39 -106 51 -106 5 0 9 -7 9 -15 0 -8 4
-15 8 -15 5 0 17 -19 28 -42 10 -22 31 -58 46 -79 16 -22 28 -41 28 -44 0 -6
52 -88 61 -95 11 -10 18 -40 9 -40 -10 0 -69 48 -86 69 -6 8 -19 37 -29 65
-10 28 -28 63 -39 77 -12 15 -27 35 -34 45 -11 17 -11 14 -6 -16 4 -19 15 -46
25 -59 11 -13 19 -30 19 -38 0 -8 11 -29 25 -47 25 -33 33 -80 15 -91 -9 -6
-67 53 -105 106 -18 26 -45 39 -45 22 1 -12 51 -97 102 -170 47 -69 67 -113
50 -113 -9 0 -24 20 -98 134 -116 178 -163 264 -183 336 -7 25 -28 86 -46 135
-18 50 -43 133 -55 185 -13 52 -26 98 -29 102 -4 4 -5 -36 -4 -89 4 -106 0
-109 -40 -30 l-24 49 -8 -44 -7 -43 -18 85 c-9 47 -23 130 -31 185 -7 55 -15
91 -17 81 -2 -11 1 -60 7 -110 12 -100 23 -286 15 -246 -3 14 -10 29 -15 35
-5 5 -9 18 -9 29 0 10 -3 17 -6 13 -3 -3 1 -42 10 -86 9 -44 19 -100 22 -123
3 -24 21 -81 40 -128 33 -83 69 -218 61 -226 -6 -6 -47 91 -47 110 0 9 -4 16
-10 16 -5 0 -10 8 -11 18 0 9 -3 12 -5 6 -2 -5 7 -41 21 -79 14 -39 25 -81 25
-94 0 -12 11 -45 25 -73 14 -27 25 -61 25 -74 0 -14 8 -41 19 -62 10 -20 21
-55 24 -76 4 -22 12 -43 18 -47 7 -4 9 -17 5 -33 -6 -25 -8 -25 -29 -11 -13 8
-34 34 -47 57 -13 24 -30 49 -37 56 -10 11 -12 7 -7 -20 4 -18 13 -44 22 -58
9 -14 19 -41 23 -60 3 -19 10 -43 14 -52 4 -10 3 -18 -2 -18 -11 0 -83 151
-83 174 0 8 -18 49 -40 91 -25 47 -40 68 -40 54 0 -22 0 -22 -18 2 -29 38 -47
84 -105 260 -109 331 -138 552 -108 817 10 85 22 157 27 160 6 4 15 23 21 42
9 30 11 32 17 15 27 -74 30 -73 39 5 12 102 15 110 33 86 13 -18 14 -14 15 42
1 58 3 70 9 90 4 13 19 -69 40 -223 11 -82 22 -154 25 -160 2 -5 3 37 2 95 -1
106 9 190 22 190 4 0 12 -26 18 -57 9 -52 10 -42 12 95 0 94 5 152 11 152 6 0
10 -17 11 -37 0 -21 5 -47 10 -58 6 -13 7 11 5 70 -4 74 8 214 13 165 1 -8 8
-55 16 -105 8 -49 17 -117 20 -150 2 -33 9 -73 14 -90 7 -23 9 -11 6 50 -1 44
-4 85 -5 90 -7 31 1 175 10 170 6 -3 10 -19 10 -34 0 -58 34 -40 46 25 l7 39
9 -32 c5 -18 15 -33 22 -33 9 0 17 -15 21 -38 9 -56 24 -75 26 -32 0 19 3 28
6 20 3 -8 12 -31 20 -50 14 -32 16 -33 24 -15 6 15 7 10 3 -15 -4 -26 -3 -31
5 -20 9 12 11 11 11 -7 0 -12 5 -25 10 -28 6 -3 10 -17 10 -30 0 -43 50 -205
62 -205 5 0 8 -9 8 -19 0 -11 4 -22 9 -26 6 -3 5 8 0 27 -6 18 -17 58 -26 88
-8 30 -19 59 -24 64 -5 6 -9 21 -9 35 0 25 1 25 14 6 7 -11 17 -36 21 -55 4
-19 11 -41 16 -50 5 -8 22 -51 40 -95 41 -106 47 -120 91 -190 21 -33 38 -67
38 -75 0 -17 63 -152 80 -173 24 -28 60 -89 60 -101 0 -7 10 -21 21 -32 l21
-19 -7 35 c-3 19 -15 47 -26 62 -10 15 -19 32 -19 38 0 5 -4 10 -10 10 -5 0
-10 7 -10 15 0 8 -4 15 -8 15 -5 0 -14 16 -22 35 -8 19 -18 35 -24 35 -5 0 -7
3 -4 6 4 3 -5 22 -19 42 -13 20 -29 56 -36 79 -6 24 -15 43 -19 43 -4 0 -8 8
-8 18 0 9 -13 51 -29 92 -65 171 -126 368 -116 378 1 2 13 -27 25 -65 59 -182
238 -583 260 -583 5 0 -6 28 -23 63 -93 180 -227 541 -256 687 -28 140 -38
213 -33 233 5 19 8 17 24 -18 9 -22 18 -47 18 -55z m-1953 18 c-3 -8 -6 -5 -6
6 -1 11 2 17 5 13 3 -3 4 -12 1 -19z m20 -30 c-3 -8 -6 -5 -6 6 -1 11 2 17 5
13 3 -3 4 -12 1 -19z m-10 -50 c-3 -8 -6 -5 -6 6 -1 11 2 17 5 13 3 -3 4 -12
1 -19z m5416 -43 c4 -32 3 -43 -3 -30 -8 19 -14 93 -6 84 2 -2 6 -26 9 -54z
m338 -1 c-5 -16 -10 -21 -10 -12 -1 18 10 51 15 45 2 -1 -1 -16 -5 -33z
m-3372 -154 c82 -163 104 -204 114 -208 4 -2 7 -7 7 -12 0 -9 103 -192 129
-229 10 -14 22 -37 26 -51 4 -14 18 -47 32 -73 22 -44 23 -67 4 -67 -4 0 -15
16 -24 35 -9 19 -20 35 -25 35 -4 0 -25 29 -46 65 -35 60 -56 86 -56 70 0 -10
31 -64 63 -109 15 -21 27 -48 27 -60 0 -17 -8 -13 -43 25 -72 79 -85 97 -144
202 -31 56 -65 114 -75 128 -9 15 -22 39 -28 55 l-10 29 20 -24 c11 -13 22
-22 25 -20 2 3 -14 49 -36 103 -22 54 -38 100 -36 102 2 2 21 -28 42 -68 20
-40 42 -77 47 -83 13 -13 0 51 -17 85 -13 24 -83 200 -92 230 -13 42 36 -40
96 -160z m-1228 67 c-10 -9 -11 -8 -5 6 3 10 9 15 12 12 3 -3 0 -11 -7 -18z
m1289 -57 c7 -16 16 -30 21 -30 5 0 9 -4 9 -9 0 -5 19 -40 42 -77 55 -91 148
-253 148 -258 0 -2 32 -70 71 -151 39 -81 68 -149 65 -152 -3 -3 -9 3 -13 13
-3 10 -9 21 -13 24 -13 11 -90 133 -90 143 0 6 -11 22 -24 36 -24 26 -139 234
-177 321 -11 25 -24 54 -30 65 -5 11 -13 34 -18 50 -5 17 -12 39 -17 49 -5 13
-4 17 3 13 6 -4 16 -20 23 -37z m-1304 -47 c-10 -26 -18 -8 -9 23 5 21 8 24
11 11 2 -10 1 -25 -2 -34z m-21 -55 c-22 -72 -38 -118 -41 -116 -1 2 2 21 7
43 6 22 13 52 16 68 3 15 10 27 15 27 5 0 6 -10 3 -22z m1508 -109 c13 -17 17
-23 71 -109 37 -60 60 -126 35 -102 -26 24 -134 207 -143 242 -8 27 -11 30 37
-31z m-413 20 c0 -6 -4 -7 -10 -4 -5 3 -10 11 -10 16 0 6 5 7 10 4 6 -3 10
-11 10 -16z m3380 -24 c0 -8 -4 -15 -10 -15 -5 0 -7 7 -4 15 4 8 8 15 10 15 2
0 4 -7 4 -15z m37 -47 c-3 -8 -6 -5 -6 6 -1 11 2 17 5 13 3 -3 4 -12 1 -19z
m-3234 -115 c35 -60 75 -127 87 -150 13 -24 29 -43 35 -43 6 0 21 -18 34 -40
12 -22 19 -40 15 -40 -13 0 -44 33 -44 47 0 7 -4 13 -10 13 -13 0 -13 -12 1
-47 6 -15 15 -41 20 -58 l8 -30 -24 30 c-14 17 -30 46 -36 65 -7 19 -38 87
-69 150 -78 156 -100 210 -86 210 3 0 34 -48 69 -107z m1491 -150 c-4 -16 -14
-39 -23 -53 -8 -14 -20 -33 -26 -42 -54 -89 -153 -218 -169 -218 -5 0 -14 -7
-21 -16 -11 -15 -12 -15 -12 2 0 11 3 21 7 24 4 3 17 25 30 50 12 25 29 53 38
63 9 9 10 17 4 17 -6 0 -13 -4 -17 -9 -3 -5 -24 -24 -47 -42 -32 -26 -38 -28
-29 -11 6 11 16 24 21 27 6 3 17 21 26 38 11 21 12 28 3 20 -19 -19 -32 -16
-17 3 47 58 132 137 135 127 8 -21 32 -15 63 17 36 37 42 38 34 3z m53 -62
c-6 -17 -15 -27 -21 -24 -5 3 -6 1 -2 -5 4 -7 2 -17 -3 -24 -11 -13 -73 -93
-89 -113 -4 -5 -24 -32 -44 -60 -36 -50 -128 -144 -113 -115 19 33 90 145 95
150 4 3 21 27 39 53 45 66 130 167 140 167 5 0 4 -13 -2 -29z m-357 -166 c-29
-30 -55 -53 -57 -51 -4 4 99 105 107 106 2 0 -20 -25 -50 -55z m10 -43 c0 -4
-15 -16 -32 -26 l-33 -17 30 25 c33 29 35 30 35 18z m-2572 -127 c7 -25 12
-56 12 -69 0 -13 6 -28 13 -34 10 -9 12 2 9 53 -5 69 11 91 23 33 4 -18 16
-52 26 -75 11 -23 19 -45 19 -49 0 -25 73 -234 81 -234 7 0 9 14 5 38 -5 33
-5 35 6 12 6 -14 33 -70 60 -126 26 -55 48 -106 48 -112 0 -20 80 -182 100
-202 3 -3 20 -36 39 -75 19 -38 45 -87 58 -107 28 -46 29 -51 1 -42 -21 6 -62
48 -86 88 -11 19 -12 18 -6 -9 4 -16 20 -49 35 -73 16 -24 29 -46 29 -50 0 -4
10 -25 21 -47 13 -24 17 -41 11 -43 -6 -2 -8 -10 -5 -18 7 -18 -4 -18 -23 0
-8 9 -10 16 -3 18 5 2 -11 30 -36 62 -25 32 -54 77 -65 100 -11 23 -30 59 -43
81 -64 108 -124 214 -142 247 -10 21 -21 35 -23 33 -5 -5 143 -300 169 -337
11 -14 19 -35 19 -46 0 -11 20 -47 44 -79 27 -35 41 -62 35 -67 -10 -11 -59
30 -59 51 0 7 -5 13 -11 13 -6 0 -8 -9 -3 -22 6 -21 6 -22 -12 -8 -33 25 -94
94 -94 106 0 6 -12 29 -26 50 -23 34 -65 107 -216 381 -16 29 -33 67 -38 84
-8 26 -7 30 6 25 14 -5 15 1 9 46 -8 58 3 57 25 -2 41 -114 88 -221 113 -260
18 -29 26 -36 21 -20 -4 14 -10 27 -13 30 -12 9 -68 144 -94 225 -46 144 -57
206 -64 341 -6 139 3 172 25 89z m1531 -35 c27 -48 15 -54 -14 -7 -27 44 -28
47 -18 47 5 0 19 -18 32 -40z m871 10 c-8 -5 -19 -10 -25 -10 -5 0 -3 5 5 10
8 5 20 10 25 10 6 0 3 -5 -5 -10z m440 -93 c0 -2 -10 -12 -22 -23 l-23 -19 19
23 c18 21 26 27 26 19z m1150 -167 c0 -5 -4 -10 -10 -10 -5 0 -10 5 -10 10 0
6 5 10 10 10 6 0 10 -4 10 -10z m-4013 -52 c-3 -7 -5 -2 -5 12 0 14 2 19 5 13
2 -7 2 -19 0 -25z m-67 -100 c85 -145 79 -135 124 -220 21 -40 42 -78 47 -84
8 -10 64 -114 135 -252 41 -81 59 -100 112 -124 24 -11 46 -26 49 -34 3 -8 17
-21 32 -29 26 -14 26 -14 2 -15 -13 0 -36 11 -53 25 -36 31 -58 33 -51 5 3
-11 9 -23 14 -26 19 -11 9 -24 -11 -14 -11 6 -20 16 -20 22 0 6 -18 35 -40 64
-22 29 -46 66 -52 81 -7 15 -42 78 -79 138 -78 130 -175 310 -205 380 -65 150
-82 195 -76 195 4 0 36 -50 72 -112z m43 -225 c14 -22 55 -97 91 -169 66 -130
104 -198 134 -244 9 -14 15 -28 14 -32 -1 -5 7 -17 19 -29 27 -27 17 -36 -16
-15 -30 20 -109 136 -145 215 -12 27 -27 21 -15 -6 5 -10 7 -21 7 -25 -1 -5 2
-8 7 -8 5 0 12 -12 15 -26 4 -15 19 -42 33 -61 30 -39 27 -48 -13 -33 -23 9
-26 13 -14 21 12 8 10 9 -6 5 -29 -9 -41 6 -158 188 -68 105 -121 205 -155
294 -25 63 -27 79 -6 62 13 -11 90 -142 107 -181 3 -9 22 -40 40 -70 19 -30
49 -81 67 -114 17 -33 45 -76 61 -95 l30 -35 -11 33 c-6 17 -15 32 -19 32 -5
0 -12 10 -16 22 -4 13 -28 57 -53 98 -89 142 -174 330 -158 347 3 3 16 -15 28
-39 34 -64 37 -20 5 72 -41 115 -30 105 39 -37 35 -72 75 -149 88 -170z m920
97 c34 -44 79 -112 75 -115 -4 -4 -141 179 -147 197 -3 11 16 -11 72 -82z
m-255 25 c-3 -3 -9 2 -12 12 -6 14 -5 15 5 6 7 -7 10 -15 7 -18z m-772 -305
c10 -19 22 -36 27 -38 4 -2 7 -8 7 -14 0 -6 11 -26 25 -44 14 -18 25 -37 25
-42 0 -5 7 -15 15 -22 21 -17 19 -33 -2 -21 -27 15 -65 52 -90 87 -54 78 -163
327 -163 372 0 9 31 -41 69 -113 37 -71 76 -146 87 -165z m1054 146 c0 -16
-41 28 -57 59 -13 27 -11 26 21 -10 19 -22 35 -44 36 -49z m-243 32 c-3 -8 -6
-5 -6 6 -1 11 2 17 5 13 3 -3 4 -12 1 -19z m-201 -25 c35 -58 64 -116 64 -130
0 -23 -11 -9 -47 57 -36 67 -45 90 -35 90 4 0 12 -8 18 -17z m232 -64 c19 -30
8 -34 -12 -4 -9 14 -13 25 -9 25 5 0 14 -9 21 -21z m-958 -24 c0 -5 -5 -3 -10
5 -5 8 -10 20 -10 25 0 6 5 3 10 -5 5 -8 10 -19 10 -25z m40 -59 c0 -3 -4 -8
-10 -11 -5 -3 -10 -1 -10 4 0 6 5 11 10 11 6 0 10 -2 10 -4z m889 -81 c0 -5
-4 -3 -9 5 -5 8 -9 22 -9 30 0 16 17 -16 18 -35z m36 25 c3 -6 -1 -7 -9 -4
-18 7 -21 14 -7 14 6 0 13 -4 16 -10z m-870 -50 c3 -5 1 -10 -4 -10 -6 0 -11
5 -11 10 0 6 2 10 4 10 3 0 8 -4 11 -10z m942 -6 c-3 -3 -12 -4 -19 -1 -8 3
-5 6 6 6 11 1 17 -2 13 -5z m58 -4 c8 -13 -5 -13 -25 0 -13 8 -13 10 2 10 9 0
20 -4 23 -10z m-969 -25 c4 -8 10 -15 15 -15 13 0 69 -58 69 -70 0 -11 -43 23
-69 54 -9 10 -22 24 -29 32 -9 9 -9 14 -2 14 6 0 13 -7 16 -15z m877 -59 c4
-10 1 -13 -9 -9 -15 6 -19 23 -5 23 5 0 11 -7 14 -14z m-198 -24 c-3 -3 -11 0
-18 7 -9 10 -8 11 6 5 10 -3 15 -9 12 -12z m54 -61 c10 -7 10 -10 1 -16 -7 -4
-15 -3 -19 2 -3 6 -13 13 -21 16 -11 4 -9 6 5 6 11 0 26 -3 34 -8z m-54 -62
c11 -17 -1 -21 -15 -4 -8 9 -8 15 -2 15 6 0 14 -5 17 -11z m298 -36 c-7 -2
-19 -2 -25 0 -7 3 -2 5 12 5 14 0 19 -2 13 -5z m-488 -13 c3 -6 -1 -7 -9 -4
-18 7 -21 14 -7 14 6 0 13 -4 16 -10z m390 -23 c119 -13 136 -26 38 -26 -84
-1 -169 21 -157 41 3 5 13 6 23 2 9 -4 52 -12 96 -17z"/>
<path d="M6340 7464 c0 -10 49 -73 50 -63 0 3 -11 20 -25 39 -14 19 -25 30
-25 24z"/>
<path d="M6620 7041 c0 -5 5 -13 10 -16 6 -3 10 -2 10 4 0 5 -4 13 -10 16 -5
3 -10 2 -10 -4z"/>
<path d="M6750 6910 c0 -5 5 -10 11 -10 5 0 7 5 4 10 -3 6 -8 10 -11 10 -2 0
-4 -4 -4 -10z"/>
<path d="M7170 6531 c0 -6 4 -13 10 -16 6 -3 7 1 4 9 -7 18 -14 21 -14 7z"/>
<path d="M7010 6456 c0 -2 8 -10 18 -17 15 -13 16 -12 3 4 -13 16 -21 21 -21
13z"/>
<path d="M7060 6151 c0 -13 88 -161 96 -161 6 0 -38 85 -70 135 -14 22 -26 34
-26 26z"/>
<path d="M7224 5994 c5 -10 13 -31 18 -46 5 -16 14 -28 19 -28 5 0 9 -8 10
-17 0 -12 2 -14 6 -5 6 14 -34 99 -51 109 -6 4 -6 -1 -2 -13z"/>
<path d="M7201 5892 c-1 -13 22 -69 59 -147 13 -29 19 -34 19 -19 1 22 -77
188 -78 166z"/>
<path d="M7140 5851 c0 -6 4 -13 10 -16 6 -3 7 1 4 9 -7 18 -14 21 -14 7z"/>
<path d="M7160 5813 c0 -4 5 -15 10 -23 8 -13 10 -13 10 2 0 9 -4 20 -10 23
-5 3 -10 3 -10 -2z"/>
<path d="M7183 5763 c17 -29 47 -105 47 -118 0 -17 88 -205 96 -205 2 0 -3 17
-12 38 -9 20 -27 66 -40 102 -36 99 -78 189 -87 190 -5 0 -6 -3 -4 -7z"/>
<path d="M7431 5630 c0 -8 4 -24 9 -35 5 -13 9 -14 9 -5 0 8 -4 24 -9 35 -5
13 -9 14 -9 5z"/>
<path d="M7357 5295 c-7 -38 39 -186 57 -179 7 3 20 -19 33 -58 12 -35 22 -56
22 -47 1 16 -30 111 -69 209 -12 30 -25 66 -29 80 l-8 25 -6 -30z"/>
<path d="M7465 5155 c4 -22 13 -53 21 -70 14 -30 14 -30 8 15 -4 25 -13 56
-21 70 -13 24 -14 24 -8 -15z"/>
<path d="M7534 4560 c3 -25 8 -92 12 -150 8 -147 22 -202 23 -95 1 104 -16
266 -30 280 -8 7 -9 -3 -5 -35z"/>
<path d="M7362 4545 c0 -11 4 -33 8 -50 7 -27 8 -27 8 -5 0 14 -4 36 -8 50 -6
20 -8 21 -8 5z"/>
<path d="M7426 4431 c-3 -4 -2 -28 3 -52 l9 -44 1 53 c1 51 -2 61 -13 43z"/>
<path d="M7370 4294 c0 -16 5 -60 11 -99 5 -38 16 -154 23 -256 7 -102 18
-194 25 -205 9 -15 10 1 5 76 -6 95 -10 133 -38 374 -14 122 -26 173 -26 110z"/>
<path d="M7433 4265 c0 -33 2 -45 4 -27 2 18 2 45 0 60 -2 15 -4 0 -4 -33z"/>
<path d="M7271 3846 c-1 -22 49 -319 55 -325 7 -8 4 45 -7 121 -12 85 -46 232
-48 204z"/>
<path d="M5670 6401 c-99 -21 -130 -31 -130 -40 0 -4 -36 -14 -80 -21 -44 -7
-80 -17 -80 -22 0 -4 -8 -8 -17 -8 -10 0 -49 -16 -88 -35 -38 -19 -75 -35 -81
-35 -7 0 -14 -7 -18 -15 -3 -8 -14 -15 -24 -15 -35 0 -41 -20 -28 -85 8 -35
17 -59 24 -57 7 1 12 -7 12 -17 0 -22 16 -37 22 -21 2 6 23 16 48 21 24 6 47
13 50 17 3 4 34 20 70 35 36 16 79 36 95 44 59 30 182 66 303 88 68 13 129 29
137 35 8 6 23 9 35 5 11 -4 20 -3 19 2 -3 19 2 25 14 15 14 -12 96 -42 116
-42 8 0 2 10 -14 24 -16 14 -32 23 -36 20 -5 -3 -18 1 -31 7 -45 23 -58 29
-68 29 -17 0 -105 60 -105 73 0 18 -50 17 -145 -2z"/>
<path d="M4398 6114 c-3 -2 -57 -6 -119 -8 -126 -4 -155 -8 -279 -37 -47 -11
-114 -27 -150 -36 -146 -34 -260 -85 -303 -136 -17 -20 -56 -77 -113 -161 -21
-31 -39 -86 -29 -86 3 0 23 9 43 19 20 11 69 34 107 51 39 18 80 37 91 42 12
6 31 7 42 4 11 -4 23 -2 27 4 3 6 10 8 15 5 5 -3 24 2 42 11 18 10 47 21 63
25 17 4 55 17 85 29 49 19 73 22 220 22 91 -1 194 -2 230 -3 98 -4 132 6 153
43 12 22 15 34 7 42 -5 5 -10 18 -10 27 0 30 -34 78 -67 96 -18 10 -33 23 -33
30 0 13 -15 25 -22 17z"/>
<path d="M3488 5673 c7 -3 16 -2 19 1 4 3 -2 6 -13 5 -11 0 -14 -3 -6 -6z"/>
<path d="M4803 5084 c-3 -8 -1 -20 6 -27 8 -8 11 -4 11 16 0 30 -7 35 -17 11z"/>
<path d="M4754 5040 c-23 -9 -59 -58 -49 -68 3 -4 10 0 15 8 9 13 10 13 10 0
0 -19 -37 -43 -45 -30 -3 6 -3 15 0 20 9 14 -7 12 -27 -4 -10 -7 -18 -22 -18
-33 0 -13 -8 -23 -21 -26 -12 -3 -18 -10 -15 -15 3 -6 3 -12 -2 -14 -14 -6
-48 -61 -67 -108 -23 -59 -28 -196 -8 -228 13 -22 20 -23 87 -19 40 2 77 7 83
10 9 6 170 20 240 21 17 1 29 5 26 9 -2 4 6 5 20 2 15 -4 41 2 71 15 70 34 75
56 11 52 -20 -2 -35 2 -35 8 0 6 4 9 9 6 5 -3 12 1 15 9 3 10 -1 18 -12 21 -9
3 -41 15 -71 27 -40 15 -58 18 -70 10 -9 -6 -15 -15 -14 -20 1 -4 -11 -8 -26
-9 -15 -1 -51 -17 -81 -37 -47 -32 -54 -34 -68 -21 -8 9 -23 14 -32 11 -38
-10 -79 120 -48 151 10 10 10 17 0 33 -12 18 -11 24 8 44 16 17 19 30 15 51
-6 27 -5 28 9 10 13 -16 18 -17 31 -6 14 12 18 11 26 -1 5 -8 8 -21 6 -29 -3
-10 3 -17 14 -17 12 -1 19 5 19 16 0 10 12 36 28 57 33 47 36 79 7 79 -11 0
-19 6 -17 13 1 6 1 12 0 11 -2 0 -12 -4 -24 -9z"/>
<path d="M5255 4739 c-47 -43 -52 -61 -12 -41 12 6 47 13 78 17 54 6 117 34
78 35 -9 0 -22 7 -29 15 -23 28 -67 18 -115 -26z"/>
<path d="M5785 4700 c-11 -18 32 -83 102 -155 67 -69 109 -69 83 1 -19 52
-170 178 -185 154z"/>
<path d="M5772 4543 c-10 -4 -10 -8 -1 -19 16 -19 -6 -43 -83 -88 -48 -29 -76
-38 -151 -48 -51 -6 -111 -12 -134 -12 -24 -1 -43 -4 -43 -7 0 -12 -244 -52
-390 -65 -36 -3 -121 -14 -190 -25 -171 -28 -300 -30 -300 -5 0 8 -7 17 -16
20 -13 5 -14 9 -4 21 7 8 11 15 9 16 -52 8 -79 6 -89 -7 -7 -7 -18 -14 -26
-14 -43 0 -39 -96 6 -133 15 -12 35 -34 45 -49 9 -15 26 -30 37 -34 11 -3 17
-8 14 -11 -3 -3 0 -15 5 -26 8 -15 13 -16 19 -7 6 9 11 7 19 -9 7 -12 16 -19
21 -16 14 9 43 -10 46 -29 3 -19 -7 -21 -24 -4 -6 6 -14 9 -17 6 -7 -7 83 -98
96 -98 6 0 7 5 4 10 -11 18 6 11 51 -22 24 -17 46 -38 49 -47 3 -9 36 -36 73
-60 61 -40 74 -45 139 -49 99 -6 327 40 408 82 34 17 79 62 88 89 7 19 4 21
-21 8 -72 -37 -202 -58 -202 -32 0 12 40 51 53 51 7 0 4 -5 -5 -11 -21 -12
-24 -29 -5 -29 17 0 141 64 174 89 14 12 31 21 37 22 6 0 40 34 76 76 36 41
72 83 81 92 8 10 18 25 22 34 5 15 13 18 42 17 13 -1 65 71 94 128 29 57 40
67 65 63 5 -1 22 1 37 4 35 8 38 34 8 76 -31 44 -81 67 -117 52z m-108 -178
c18 -14 18 -15 0 -67 -16 -45 -23 -53 -44 -53 -27 0 -38 -16 -39 -56 -1 -33
-27 -57 -43 -41 -18 18 -28 15 -28 -8 0 -28 -43 -52 -101 -58 -43 -4 -52 -9
-65 -34 -10 -18 -19 -27 -25 -21 -12 12 -162 -9 -183 -26 -9 -7 -16 -9 -16 -4
0 7 -16 7 -45 0 -32 -7 -52 -7 -69 1 -17 7 -35 8 -58 1 -55 -15 -78 -11 -110
23 -25 27 -32 30 -49 20 -28 -18 -43 -15 -68 12 -41 44 -37 146 6 146 9 0 31
-11 49 -25 l32 -24 14 20 c14 22 46 28 89 16 18 -5 31 -1 46 13 30 27 80 38
126 26 28 -8 42 -7 55 2 43 31 120 62 156 62 22 0 59 9 82 20 23 11 59 21 80
22 22 1 51 10 66 21 15 11 35 17 46 15 11 -3 26 -2 33 3 20 12 41 10 63 -6z
m-1054 -400 c7 -9 10 -18 7 -22 -8 -7 -37 15 -37 28 0 14 16 11 30 -6z m554
-65 c34 -13 33 -25 -6 -44 -36 -18 -58 -20 -58 -6 0 6 -7 10 -15 10 -21 0 -19
19 3 26 9 3 24 9 32 14 8 5 16 9 17 9 1 1 13 -3 27 -9z"/>
<path d="M4235 4327 c-33 -40 -36 -48 -30 -67 5 -17 10 -19 21 -9 8 6 14 16
14 22 0 6 7 18 16 28 9 10 13 23 9 28 -8 14 -17 13 -30 -2z"/>
<path d="M3840 4145 c0 -8 5 -15 10 -15 6 0 10 7 10 15 0 8 -4 15 -10 15 -5 0
-10 -7 -10 -15z"/>
<path d="M1856 3615 c-3 -8 -1 -15 4 -15 6 0 10 7 10 15 0 8 -2 15 -4 15 -2 0
-6 -7 -10 -15z"/>
<path d="M3560 3349 c0 -5 5 -7 10 -4 6 3 10 8 10 11 0 2 -4 4 -10 4 -5 0 -10
-5 -10 -11z"/>
<path d="M3831 3344 c0 -11 3 -14 6 -6 3 7 2 16 -1 19 -3 4 -6 -2 -5 -13z"/>
<path d="M3513 3275 c0 -22 2 -30 4 -17 2 12 2 30 0 40 -3 9 -5 -1 -4 -23z"/>
<path d="M3871 3184 c0 -11 3 -14 6 -6 3 7 2 16 -1 19 -3 4 -6 -2 -5 -13z"/>
<path d="M3616 3063 c10 -43 99 -264 128 -319 25 -47 26 -48 20 -14 -3 19 -12
46 -20 60 -28 52 -92 197 -108 248 -19 55 -31 70 -20 25z"/>
<path d="M3322 2775 c0 -16 2 -22 5 -12 2 9 2 23 0 30 -3 6 -5 -1 -5 -18z"/>
<path d="M3662 2795 c0 -5 6 -26 13 -45 7 -19 14 -28 14 -20 0 8 -6 29 -14 45
-7 17 -13 26 -13 20z"/>
<path d="M3621 2754 c0 -11 3 -14 6 -6 3 7 2 16 -1 19 -3 4 -6 -2 -5 -13z"/>
<path d="M3472 2695 c0 -16 2 -22 5 -12 2 9 2 23 0 30 -3 6 -5 -1 -5 -18z"/>
<path d="M3487 2625 c3 -22 7 -42 9 -44 8 -9 2 45 -6 64 -7 14 -8 8 -3 -20z"/>
<path d="M3671 2554 c0 -11 3 -14 6 -6 3 7 2 16 -1 19 -3 4 -6 -2 -5 -13z"/>
<path d="M3512 2535 c0 -11 3 -29 8 -40 11 -25 11 1 0 35 -6 20 -8 21 -8 5z"/>
<path d="M3751 2450 c0 -14 4 -32 9 -40 8 -12 10 -12 9 5 0 11 -4 29 -9 40 -8
18 -9 18 -9 -5z"/>
<path d="M3840 2335 c0 -14 79 -156 97 -177 36 -40 29 -13 -15 60 -58 95 -82
129 -82 117z"/>
<path d="M4150 2250 c0 -5 5 -10 10 -10 6 0 10 5 10 10 0 6 -4 10 -10 10 -5 0
-10 -4 -10 -10z"/>
<path d="M3644 2088 c2 -13 11 -39 20 -58 21 -48 22 -7 1 44 -17 41 -28 47
-21 14z"/>
<path d="M3976 2057 c3 -10 9 -15 12 -12 3 3 0 11 -7 18 -10 9 -11 8 -5 -6z"/>
<path d="M4035 1980 c3 -5 8 -10 11 -10 2 0 4 5 4 10 0 6 -5 10 -11 10 -5 0
-7 -4 -4 -10z"/>
<path d="M3225 1953 c4 -10 21 -56 36 -103 16 -46 36 -91 44 -99 22 -23 19 0
-11 66 -14 32 -32 79 -40 106 -8 26 -20 47 -25 47 -7 0 -8 -7 -4 -17z"/>
<path d="M3826 1905 c4 -8 8 -15 10 -15 2 0 4 7 4 15 0 8 -4 15 -10 15 -5 0
-7 -7 -4 -15z"/>
<path d="M3320 1863 c0 -21 49 -84 50 -64 0 14 -38 81 -46 81 -2 0 -4 -8 -4
-17z"/>
<path d="M3360 1751 c0 -16 62 -142 67 -137 3 2 0 21 -6 43 -11 39 -61 117
-61 94z"/>
<path d="M3430 1743 c0 -4 5 -15 10 -23 8 -13 10 -13 10 2 0 9 -4 20 -10 23
-5 3 -10 3 -10 -2z"/>
<path d="M3516 1507 c3 -10 9 -15 12 -12 3 3 0 11 -7 18 -10 9 -11 8 -5 -6z"/>
<path d="M2947 2140 c3 -11 7 -20 9 -20 2 0 4 9 4 20 0 11 -4 20 -9 20 -5 0
-7 -9 -4 -20z"/>
<path d="M2961 2094 c0 -11 3 -14 6 -6 3 7 2 16 -1 19 -3 4 -6 -2 -5 -13z"/>
<path d="M3170 1614 c0 -19 80 -143 93 -144 12 0 8 28 -6 42 -7 7 -28 34 -45
61 -31 44 -42 55 -42 41z"/>
<path d="M3140 1405 c0 -5 11 -23 25 -40 13 -16 24 -25 24 -20 0 6 -11 24 -24
40 -14 17 -25 26 -25 20z"/>
<path d="M2871 1453 c-1 -17 16 -25 25 -12 4 7 3 9 -4 5 -5 -3 -13 0 -15 6 -4
9 -6 10 -6 1z"/>
<path d="M3865 8161 c-54 -19 -163 -81 -143 -81 8 0 169 78 176 85 7 7 -8 5
-33 -4z"/>
<path d="M3399 7963 c-13 -16 -12 -17 4 -4 16 13 21 21 13 21 -2 0 -10 -8 -17
-17z"/>
<path d="M3070 7920 c-8 -5 -12 -12 -9 -15 4 -3 12 1 19 10 14 17 11 19 -10 5z"/>
<path d="M3279 7863 c-39 -45 -89 -110 -89 -117 0 -15 64 52 90 96 34 55 34
60 -1 21z"/>
<path d="M3715 7846 c-25 -25 -45 -50 -45 -56 0 -7 5 -6 13 2 6 8 30 33 52 56
52 56 37 54 -20 -2z"/>
<path d="M3375 7794 c-24 -37 -13 -40 14 -4 12 17 17 30 12 30 -5 0 -16 -12
-26 -26z"/>
<path d="M3432 7800 c-7 -11 -8 -20 -3 -20 9 0 24 30 18 36 -1 2 -8 -6 -15
-16z"/>
<path d="M3140 7759 c0 -5 5 -7 10 -4 6 3 10 8 10 11 0 2 -4 4 -10 4 -5 0 -10
-5 -10 -11z"/>
<path d="M2656 7723 c-6 -14 -5 -15 5 -6 7 7 10 15 7 18 -3 3 -9 -2 -12 -12z"/>
<path d="M3297 7663 c-20 -31 -35 -58 -32 -61 3 -3 6 -3 8 -1 28 38 77 110 77
114 0 18 -21 -3 -53 -52z"/>
<path d="M2556 7448 c-20 -29 -36 -48 -36 -43 0 6 -19 -27 -41 -73 -105 -220
-227 -661 -339 -1227 -17 -83 -32 -164 -34 -180 -2 -17 -9 -46 -15 -65 -6 -19
-11 -44 -10 -55 1 -23 24 59 43 155 7 36 23 101 35 145 35 128 163 516 168
511 3 -3 0 -21 -7 -40 -6 -20 -10 -43 -8 -52 2 -9 28 57 58 146 30 89 56 155
58 148 1 -8 -17 -79 -42 -159 -59 -192 -100 -338 -121 -429 -31 -139 -65 -315
-64 -335 0 -25 24 59 39 140 39 206 125 499 173 585 14 25 48 110 76 190 29
80 60 163 70 185 10 22 24 59 31 83 7 23 17 42 22 42 4 0 8 9 8 19 0 11 4 22
10 26 5 3 7 12 3 20 -3 9 2 26 11 40 9 14 13 25 8 25 -10 0 -30 -24 -70 -84
-18 -28 -32 -42 -32 -32 0 14 28 85 48 121 3 6 -4 1 -16 -9 -12 -11 -22 -23
-22 -28 0 -5 -10 -19 -21 -31 l-21 -22 7 23 c8 28 -6 29 -25 1 -8 -11 -21 -28
-28 -37 -12 -15 -13 -15 -6 3 4 11 8 43 9 70 2 38 13 68 44 124 22 41 41 76
41 78 0 3 9 18 21 35 12 16 19 32 16 34 -3 3 -21 -18 -41 -48z m-86 -217 c0
-5 -6 -14 -14 -20 -12 -10 -13 -8 -9 8 5 21 23 30 23 12z m-263 -913 c-3 -7
-5 -2 -5 12 0 14 2 19 5 13 2 -7 2 -19 0 -25z"/>
<path d="M2822 7255 c-54 -78 -117 -193 -111 -199 5 -5 170 266 165 271 -2 2
-26 -30 -54 -72z"/>
<path d="M2980 7218 c-15 -21 -17 -28 -6 -19 16 13 41 51 33 51 -2 0 -14 -15
-27 -32z"/>
<path d="M2998 7148 c-31 -42 -101 -179 -94 -185 3 -3 13 12 23 33 10 22 21
41 24 44 3 3 12 16 19 30 7 14 26 41 41 61 16 20 29 40 29 43 0 15 -20 3 -42
-26z"/>
<path d="M2722 6410 c0 -14 2 -19 5 -12 2 6 2 18 0 25 -3 6 -5 1 -5 -13z"/>
<path d="M2703 6353 c-7 -15 -13 -33 -13 -41 0 -7 -4 -11 -9 -7 -14 8 -22 -10
-46 -109 -14 -59 -19 -97 -14 -108 9 -17 3 -52 -31 -178 -10 -36 -28 -108 -39
-160 -12 -52 -27 -120 -35 -150 -8 -30 -22 -91 -31 -135 -10 -44 -23 -102 -30
-130 -21 -79 -53 -224 -65 -295 -15 -85 -20 -101 -30 -95 -5 3 -11 -9 -14 -27
-6 -34 -20 -133 -56 -373 -11 -77 -25 -158 -30 -180 -12 -51 -40 -220 -40
-242 0 -9 3 -14 6 -11 5 6 13 45 93 478 23 124 52 272 66 330 13 58 36 164 50
235 51 257 208 899 227 930 14 24 59 235 56 263 l-3 32 -12 -27z"/>
<path d="M2600 6068 c0 -7 -3 -24 -6 -38 -4 -18 -3 -21 4 -10 17 27 24 60 13
60 -6 0 -11 -6 -11 -12z"/>
<path d="M2141 5924 c0 -11 3 -14 6 -6 3 7 2 16 -1 19 -3 4 -6 -2 -5 -13z"/>
<path d="M2131 5874 c0 -11 3 -14 6 -6 3 7 2 16 -1 19 -3 4 -6 -2 -5 -13z"/>
<path d="M2192 5845 c0 -16 2 -22 5 -12 2 9 2 23 0 30 -3 6 -5 -1 -5 -18z"/>
<path d="M2632 5800 c0 -14 2 -19 5 -12 2 6 2 18 0 25 -3 6 -5 1 -5 -13z"/>
<path d="M2112 5780 c0 -14 2 -19 5 -12 2 6 2 18 0 25 -3 6 -5 1 -5 -13z"/>
<path d="M2072 5750 c0 -19 2 -27 5 -17 2 9 2 25 0 35 -3 9 -5 1 -5 -18z"/>
<path d="M2451 5714 c0 -11 3 -14 6 -6 3 7 2 16 -1 19 -3 4 -6 -2 -5 -13z"/>
<path d="M2061 5694 c0 -11 3 -14 6 -6 3 7 2 16 -1 19 -3 4 -6 -2 -5 -13z"/>
<path d="M2433 5675 c-3 -9 -3 -18 -1 -21 3 -3 8 4 11 16 6 23 -1 27 -10 5z"/>
<path d="M2052 5640 c0 -14 2 -19 5 -12 2 6 2 18 0 25 -3 6 -5 1 -5 -13z"/>
<path d="M2416 5612 c-7 -12 -52 -207 -60 -259 -4 -26 -2 -43 4 -43 11 0 16
18 30 115 6 39 18 96 27 128 14 52 14 83 -1 59z"/>
<path d="M2071 5574 c0 -11 3 -14 6 -6 3 7 2 16 -1 19 -3 4 -6 -2 -5 -13z"/>
<path d="M2061 5534 c0 -11 3 -14 6 -6 3 7 2 16 -1 19 -3 4 -6 -2 -5 -13z"/>
<path d="M2025 5423 c0 -12 3 -23 6 -23 4 0 9 11 11 23 3 13 0 24 -6 24 -6 0
-11 -11 -11 -24z"/>
<path d="M2085 4959 c-4 -6 -5 -12 -2 -15 2 -3 7 2 10 11 7 17 1 20 -8 4z"/>
<path d="M2152 4305 c0 -16 2 -22 5 -12 2 9 2 23 0 30 -3 6 -5 -1 -5 -18z"/>
<path d="M2137 4253 c-9 -30 -20 -138 -13 -132 7 6 27 142 21 147 -2 2 -6 -5
-8 -15z"/>
<path d="M2991 4194 c0 -11 3 -14 6 -6 3 7 2 16 -1 19 -3 4 -6 -2 -5 -13z"/>
<path d="M2955 4030 c-4 -28 -5 -53 -2 -56 2 -3 7 19 11 47 4 28 5 53 3 56 -3
2 -8 -19 -12 -47z"/>
<path d="M2937 3936 c-4 -10 -7 -25 -6 -34 0 -11 4 -9 10 7 5 13 8 29 6 35 -2
5 -6 2 -10 -8z"/>
<path d="M2461 3904 c0 -11 3 -14 6 -6 3 7 2 16 -1 19 -3 4 -6 -2 -5 -13z"/>
<path d="M2452 3808 c-1 -20 -5 -45 -8 -55 -5 -17 -5 -17 6 0 6 9 9 34 7 55
l-4 37 -1 -37z"/>
<path d="M2507 3803 c-4 -3 -7 -13 -7 -22 1 -13 3 -13 11 2 11 19 8 33 -4 20z"/>
<path d="M2151 3734 c0 -11 3 -14 6 -6 3 7 2 16 -1 19 -3 4 -6 -2 -5 -13z"/>
<path d="M2941 3664 c0 -11 3 -14 6 -6 3 7 2 16 -1 19 -3 4 -6 -2 -5 -13z"/>
<path d="M2882 3650 c0 -14 2 -19 5 -12 2 6 2 18 0 25 -3 6 -5 1 -5 -13z"/>
<path d="M2161 3584 c0 -11 3 -14 6 -6 3 7 2 16 -1 19 -3 4 -6 -2 -5 -13z"/>
<path d="M2825 3438 c-27 -117 -33 -150 -24 -141 11 12 47 127 54 178 12 76
-9 50 -30 -37z"/>
<path d="M2241 3494 c0 -11 3 -14 6 -6 3 7 2 16 -1 19 -3 4 -6 -2 -5 -13z"/>
<path d="M2546 3284 c-4 -14 -5 -28 -3 -31 3 -2 8 8 11 23 4 14 5 28 3 31 -3
2 -8 -8 -11 -23z"/>
<path d="M2696 3262 c-2 -4 -9 -34 -15 -67 -6 -33 -18 -85 -26 -115 -12 -49
-12 -53 1 -35 19 26 43 107 50 172 5 49 2 64 -10 45z"/>
<path d="M6630 3213 c0 -10 -7 -36 -15 -58 -14 -39 -21 -104 -9 -93 4 5 44
152 44 164 0 2 -4 4 -10 4 -5 0 -10 -8 -10 -17z"/>
<path d="M6621 2769 c-37 -104 -34 -129 5 -45 24 53 43 136 32 136 -3 0 -20
-41 -37 -91z"/>
<path d="M6157 2743 c-4 -3 -7 -13 -7 -22 1 -13 3 -13 11 2 11 19 8 33 -4 20z"/>
<path d="M2516 2725 c-3 -9 -6 -22 -5 -28 0 -7 5 -1 10 12 5 13 8 26 5 28 -2
2 -6 -3 -10 -12z"/>
<path d="M6685 2683 c-37 -122 -67 -209 -81 -240 -8 -17 -13 -39 -12 -50 2
-18 -25 -86 -63 -156 -11 -21 -18 -41 -16 -44 3 -2 23 12 44 32 21 20 53 48
71 62 17 14 32 29 32 34 0 11 -29 0 -55 -20 -11 -8 -1 4 23 28 41 43 64 95 60
142 0 13 4 42 10 64 9 35 16 205 8 205 -2 0 -11 -26 -21 -57z"/>
<path d="M6607 2629 c-15 -22 -27 -46 -27 -53 0 -6 -7 -22 -16 -34 -8 -12 -14
-30 -12 -40 1 -9 -5 -32 -14 -49 -11 -22 -13 -35 -6 -39 14 -9 43 29 62 81 17
43 47 167 42 172 -1 2 -15 -16 -29 -38z"/>
<path d="M6514 2644 c-4 -10 -15 -39 -24 -64 -9 -25 -20 -58 -23 -75 -9 -43
33 46 49 105 12 45 11 70 -2 34z"/>
<path d="M7125 2639 c-4 -6 -5 -12 -2 -15 2 -3 7 2 10 11 7 17 1 20 -8 4z"/>
<path d="M2601 2624 c0 -11 3 -14 6 -6 3 7 2 16 -1 19 -3 4 -6 -2 -5 -13z"/>
<path d="M6074 2586 c-45 -46 -79 -94 -72 -102 8 -7 121 123 116 134 -1 5 -21
-10 -44 -32z"/>
<path d="M6416 2537 c-11 -26 -16 -50 -13 -54 9 -9 39 65 35 85 -2 10 -12 -3
-22 -31z"/>
<path d="M6752 2558 c-14 -18 -42 -129 -35 -141 3 -5 10 -3 14 6 9 15 39 147
34 147 -1 0 -7 -6 -13 -12z"/>
<path d="M5990 2415 c-7 -9 -8 -15 -2 -15 5 0 12 7 16 15 3 8 4 15 2 15 -2 0
-9 -7 -16 -15z"/>
<path d="M7022 2378 c-12 -23 -19 -45 -14 -50 10 -10 46 64 41 81 -2 6 -14 -8
-27 -31z"/>
<path d="M6947 2374 c-10 -14 -17 -32 -15 -42 2 -12 9 -5 22 21 21 46 18 55
-7 21z"/>
<path d="M6512 2346 c-34 -54 -39 -70 -19 -64 16 6 60 85 54 101 -2 6 -18 -10
-35 -37z"/>
<path d="M7202 2353 c-9 -28 -9 -40 0 -48 8 -7 9 -7 5 1 -4 7 -2 26 4 43 6 18
9 34 7 37 -3 2 -10 -13 -16 -33z"/>
<path d="M7169 2283 c-13 -16 -12 -17 4 -4 16 13 21 21 13 21 -2 0 -10 -8 -17
-17z"/>
<path d="M6140 2259 c0 -5 5 -7 10 -4 6 3 10 8 10 11 0 2 -4 4 -10 4 -5 0 -10
-5 -10 -11z"/>
<path d="M6220 2228 l-23 -33 28 27 c16 15 26 30 23 33 -3 4 -16 -9 -28 -27z"/>
<path d="M7047 2157 c-11 -11 -25 -16 -35 -12 -9 3 -13 3 -10 -1 4 -3 -5 -23
-20 -43 l-27 -36 46 41 c25 23 51 43 59 46 7 2 11 8 9 14 -2 5 -12 1 -22 -9z"/>
<path d="M9456 963 c-24 -25 -66 -118 -66 -144 0 -6 -7 -25 -15 -42 -8 -18
-23 -57 -35 -88 -24 -66 -76 -125 -96 -108 -17 14 -9 32 42 99 78 104 104 181
69 210 -24 20 -60 -5 -85 -58 -23 -48 -50 -158 -50 -203 0 -15 -7 -32 -15 -39
-13 -11 -15 -6 -15 32 0 34 -6 50 -25 68 -23 22 -25 22 -50 6 -24 -16 -85
-100 -85 -117 0 -4 -5 -20 -10 -35 l-10 -26 -25 26 c-13 14 -30 26 -37 26 -22
0 -57 -29 -73 -60 -27 -53 -14 -200 18 -200 5 0 4 -7 -3 -15 -7 -9 -20 -15
-29 -13 -9 1 -35 -8 -59 -21 -48 -25 -75 -21 -96 12 -40 65 -25 182 41 317 40
82 60 109 150 199 97 98 115 121 94 121 -30 0 -215 -55 -301 -89 -197 -80
-324 -157 -413 -249 -64 -68 -77 -100 -53 -138 21 -32 47 -41 167 -62 89 -15
97 -18 95 -38 0 -12 -4 -20 -8 -18 -4 2 -9 -5 -13 -16 -3 -11 -18 -29 -33 -40
-14 -12 -27 -28 -28 -37 -2 -9 -18 -32 -36 -51 -18 -20 -24 -30 -14 -22 11 8
37 34 59 58 72 77 132 50 139 -64 l3 -49 -60 -12 c-33 -7 -99 -16 -147 -19
-49 -4 -88 -11 -88 -16 0 -13 172 6 268 29 21 5 22 3 16 -36 -6 -38 -5 -41 15
-41 36 0 57 17 90 70 35 56 46 61 55 25 10 -38 35 -30 88 26 35 37 75 65 146
99 53 27 98 47 100 46 1 -2 -2 -24 -7 -49 -15 -84 8 -129 49 -92 22 20 56 103
71 174 9 45 14 49 117 119 59 40 123 87 143 105 19 17 28 27 20 21 -67 -49
-255 -173 -258 -170 -2 2 -1 38 3 79 8 86 38 154 56 124 5 -9 15 -17 22 -17
18 0 73 63 93 105 10 21 21 31 30 28 9 -4 11 0 7 11 -5 13 0 16 25 16 25 0 36
7 55 38 13 20 30 55 36 77 14 48 10 147 -7 152 -6 2 -23 -9 -37 -24z m42 -62
c-8 -105 -66 -197 -102 -161 -13 13 -12 24 12 95 31 93 56 135 79 135 13 0 15
-10 11 -69z m-592 -82 c-165 -154 -263 -373 -228 -506 8 -27 9 -49 4 -52 -5
-3 -23 -33 -40 -66 -32 -61 -55 -95 -64 -95 -3 0 -9 26 -13 57 -5 43 -14 63
-35 85 -16 15 -36 28 -46 28 -14 0 -12 6 12 31 20 22 25 33 16 36 -8 3 -9 9
-4 16 19 26 97 276 88 284 -3 3 -14 -28 -26 -68 -28 -95 -61 -188 -69 -193 -8
-5 -191 20 -216 29 -55 22 -70 68 -37 115 74 109 294 239 543 324 200 67 210
64 115 -25z m452 34 c4 -27 -46 -123 -89 -173 l-30 -35 6 52 c6 58 28 126 51
161 20 30 58 26 62 -5z m-203 -173 c12 -20 -18 -95 -49 -125 -19 -18 -36 -45
-40 -65 -3 -19 -15 -50 -27 -69 -16 -27 -23 -31 -30 -20 -12 19 -3 70 27 149
36 97 98 165 119 130z m20 -102 c-4 -22 -24 -70 -45 -106 -22 -37 -49 -93 -61
-124 -21 -57 -22 -58 -119 -108 -54 -27 -101 -50 -104 -50 -17 0 -2 21 23 35
20 10 31 24 33 42 2 20 10 29 32 34 15 4 54 33 84 64 50 51 57 62 60 103 3 46
15 72 29 59 3 -4 -1 -24 -11 -43 -9 -20 -15 -39 -12 -42 7 -6 51 87 67 144 16
53 33 47 24 -8z m-195 -43 c22 -27 13 -104 -17 -153 -54 -87 -84 -81 -91 17
-6 81 26 151 68 151 15 0 33 -7 40 -15z m187 -67 c-3 -18 -9 -52 -12 -75 -5
-34 -13 -46 -42 -63 -20 -11 -38 -19 -41 -16 -7 8 80 186 91 186 5 0 7 -15 4
-32z m-161 -79 c6 -11 -42 -69 -58 -69 -5 0 2 18 14 40 24 42 32 47 44 29z
m122 -126 c-40 -135 -88 -187 -88 -95 0 78 15 115 57 140 21 12 41 22 45 22 3
0 -3 -30 -14 -67z m-238 -3 c0 -5 -9 -14 -20 -20 -16 -8 -20 -8 -20 4 0 13 13
23 33 25 4 1 7 -3 7 -9z m-149 -32 c17 -6 -11 -48 -32 -48 -12 0 -15 9 -13 38
3 47 2 46 19 29 8 -9 20 -17 26 -19z m89 3 c0 -5 -14 -14 -31 -20 -40 -14 -39
-14 -33 3 5 13 15 17 57 25 4 0 7 -3 7 -8z m-154 -56 c-3 -8 -14 -19 -25 -25
-21 -11 -21 -10 1 36 19 38 24 43 26 25 2 -13 1 -29 -2 -36z m148 14 c-6 -10
-70 -39 -85 -39 -24 0 -4 23 34 39 42 18 63 18 51 0z m-114 -37 c0 -13 -12
-22 -22 -16 -10 6 -1 24 13 24 5 0 9 -4 9 -8z m90 0 c0 -16 -52 -62 -70 -62
-35 0 -21 28 25 52 35 19 45 21 45 10z m-177 -100 c-30 -37 -73 -55 -73 -31 0
22 50 78 72 81 34 5 34 -9 1 -50z"/>
<path d="M8612 504 c-22 -44 -52 -96 -67 -118 -14 -21 -24 -40 -21 -43 7 -7
60 75 100 156 21 40 35 75 32 78 -2 3 -23 -30 -44 -73z"/>
</g>
</svg>
